<svg xmlns="http://www.w3.org/2000/svg" width="933.333" height="933.333" preserveAspectRatio="xMidYMid meet" version="1.0" viewBox="0 0 700 700"><metadata>Created by potrace 1.11, written by Peter Selinger 2001-2013</metadata><g fill="#000" stroke="none"><path d="M544 6985 c-132 -29 -253 -95 -347 -189 -55 -56 -117 -145 -136 -198 -7 -18 -17 -42 -22 -53 -40 -89 -39 -13 -38 -3045 1 -2372 3 -2906 14 -2956 58 -267 262 -472 525 -527 68 -15 361 -16 2985 -14 1601 1 2921 5 2934 9 130 39 206 77 289 144 123 100 203 232 240 399 9 40 9 5839 0 5890 -37 211 -195 409 -399 499 -136 59 79 56 -3089 55 -2374 0 -2906 -3 -2956 -14z" transform="translate(0.000000,700.000000) scale(0.100000,-0.100000)"/></g></svg>