<?xml version="1.0" standalone="no"?>
<!DOCTYPE svg PUBLIC "-//W3C//DTD SVG 20010904//EN"
 "http://www.w3.org/TR/2001/REC-SVG-20010904/DTD/svg10.dtd">
<svg version="1.0" xmlns="http://www.w3.org/2000/svg"
 width="512.000000pt" height="512.000000pt" viewBox="0 0 512.000000 512.000000"
 preserveAspectRatio="xMidYMid meet">
<metadata>
Created by potrace 1.11, written by Peter Selinger 2001-2013
</metadata>
<g transform="translate(0.000000,512.000000) scale(0.100000,-0.100000)"
fill="#000000" stroke="none">
<path d="M383 5106 c-181 -44 -334 -202 -372 -384 -16 -75 -16 -4249 0 -4324
39 -187 200 -348 387 -387 75 -16 4249 -16 4324 0 92 19 177 67 249 138 71 72
119 157 138 249 16 75 16 4249 0 4324 -39 187 -200 348 -387 387 -81 17 -4268
14 -4339 -3z m3267 -2531 l0 -1485 -300 0 -300 0 0 116 0 116 -59 -54 c-110
-99 -228 -157 -391 -190 -137 -29 -372 -21 -515 16 -337 88 -592 320 -710 646
-86 239 -90 588 -9 829 121 362 411 613 791 687 118 23 339 23 448 0 149 -33
281 -101 383 -199 l42 -41 0 522 0 522 310 0 310 0 0 -1485z"/>
<path d="M2343 2745 c-178 -48 -317 -184 -374 -365 -30 -95 -36 -253 -15 -360
52 -260 238 -427 498 -446 168 -12 299 36 418 156 125 124 165 234 164 445 -1
112 -5 141 -28 212 -59 181 -194 312 -371 358 -73 19 -222 19 -292 0z"/>
</g>
</svg>
