<svg width="91" height="35" viewBox="0 0 91 35" fill="none" xmlns="http://www.w3.org/2000/svg">
<path d="M28.0574 7.23071V28.973H23.7377V27.1563C22.6167 28.5237 20.9932 29.2075 18.8672 29.2075C17.3983 29.2075 16.0647 28.8754 14.8664 28.2112C13.6875 27.547 12.7598 26.5995 12.0833 25.3688C11.4068 24.1382 11.0686 22.7121 11.0686 21.0907C11.0686 19.4693 11.4068 18.0433 12.0833 16.8126C12.7598 15.5819 13.6875 14.6344 14.8664 13.9702C16.0647 13.3061 17.3983 12.974 18.8672 12.974C20.858 12.974 22.4138 13.6089 23.5348 14.8786V7.23071H28.0574ZM19.65 25.4568C20.7903 25.4568 21.7373 25.0661 22.4911 24.2847C23.2449 23.4837 23.6218 22.4191 23.6218 21.0907C23.6218 19.7623 23.2449 18.7075 22.4911 17.9261C21.7373 17.1251 20.7903 16.7247 19.65 16.7247C18.4903 16.7247 17.5336 17.1251 16.7799 17.9261C16.0261 18.7075 15.6492 19.7623 15.6492 21.0907C15.6492 22.4191 16.0261 23.4837 16.7799 24.2847C17.5336 25.0661 18.4903 25.4568 19.65 25.4568ZM32.5331 13.2084H37.0558V28.973H32.5331V13.2084ZM34.7944 11.0107C33.9634 11.0107 33.2869 10.7665 32.7651 10.2782C32.2432 9.78978 31.9823 9.1842 31.9823 8.46141C31.9823 7.73862 32.2432 7.13304 32.7651 6.64467C33.2869 6.1563 33.9634 5.91211 34.7944 5.91211C35.6255 5.91211 36.302 6.14653 36.8238 6.61536C37.3457 7.0842 37.6066 7.67025 37.6066 8.3735C37.6066 9.13536 37.3457 9.77025 36.8238 10.2782C36.302 10.7665 35.6255 11.0107 34.7944 11.0107ZM51.6031 28.2112C51.1586 28.5433 50.6078 28.7972 49.9507 28.973C49.3129 29.1293 48.6364 29.2075 47.9213 29.2075C46.0658 29.2075 44.6259 28.7288 43.6016 27.7716C42.5966 26.8144 42.0941 25.4079 42.0941 23.5521V17.0763H39.6876V13.56H42.0941V9.72141H46.6167V13.56H50.5015V17.0763H46.6167V23.4935C46.6167 24.1577 46.781 24.6754 47.1095 25.0465C47.4574 25.3982 47.9406 25.574 48.5591 25.574C49.2742 25.574 49.883 25.3786 50.3855 24.9879L51.6031 28.2112ZM69.2286 21.1493C69.2286 21.2079 69.1996 21.6182 69.1416 22.38H57.3422C57.5548 23.3568 58.0573 24.1284 58.8497 24.6949C59.6422 25.2614 60.6279 25.5447 61.8068 25.5447C62.6186 25.5447 63.3337 25.4275 63.9522 25.193C64.59 24.9391 65.1795 24.5484 65.7206 24.0209L68.1269 26.6582C66.658 28.3577 64.5127 29.2075 61.6909 29.2075C59.9321 29.2075 58.3762 28.8656 57.0233 28.1819C55.6704 27.4786 54.6267 26.5116 53.8922 25.2809C53.1578 24.0502 52.7906 22.6535 52.7906 21.0907C52.7906 19.5475 53.1481 18.1605 53.8633 16.9298C54.5977 15.6795 55.5931 14.7126 56.8493 14.0289C58.125 13.3256 59.5455 12.974 61.111 12.974C62.6379 12.974 64.0198 13.3061 65.2568 13.9702C66.4937 14.6344 67.4601 15.5916 68.1559 16.8419C68.871 18.0726 69.2286 19.5084 69.2286 21.1493ZM61.14 16.4316C60.1157 16.4316 59.2556 16.7247 58.5598 17.3107C57.864 17.8968 57.4388 18.6977 57.2842 19.7135H64.9669C64.8122 18.7172 64.387 17.9261 63.6913 17.34C62.9955 16.7344 62.1451 16.4316 61.14 16.4316ZM87.7277 13.2084L80.6829 29.94C79.9678 31.7568 79.0787 33.0363 78.0157 33.7786C76.972 34.5209 75.7061 34.8921 74.2179 34.8921C73.4061 34.8921 72.604 34.7651 71.8116 34.5112C71.0192 34.2572 70.3717 33.9056 69.8692 33.4563L71.5217 30.2037C71.8696 30.5163 72.2658 30.7605 72.7103 30.9363C73.1742 31.1121 73.6284 31.2 74.0729 31.2C74.6914 31.2 75.1939 31.0437 75.5805 30.7312C75.967 30.4382 76.3149 29.94 76.6241 29.2368L76.6821 29.0902L69.9272 13.2084H74.5947L78.9724 23.9037L83.3791 13.2084H87.7277Z" fill="white"/>
<path d="M18.3767 10.1119C18.2247 10.2941 17.9867 10.3011 17.7694 10.3318C13.7605 10.6621 10.157 13.179 9.05985 17.2146C8.99615 17.4481 8.99675 17.6046 8.8652 17.7622C8.55234 18.1372 7.78504 18.0047 7.15416 17.467C6.52328 16.9292 6.40603 16.6841 6.53621 16.1774C6.88913 14.8113 7.37751 13.5247 8.59381 12.067C10.4914 9.79292 13.2738 8.40509 16.4516 8.15179C16.9714 8.10922 17.2812 8.01476 17.7942 8.45201C18.428 8.99834 18.6954 9.72992 18.3767 10.1119ZM14.7903 5.19584C14.6382 5.37804 14.468 5.42484 14.1831 5.45182C9.59558 5.81062 5.27223 9.75853 4.21909 13.8018C4.17283 13.9781 4.13558 14.2163 3.99523 14.3844C3.6093 14.847 2.7067 14.6832 1.92252 14.0147C1.12066 13.3312 1.30958 12.9591 1.41942 12.5131C1.8413 10.762 2.70437 9.13517 3.95867 7.63196C6.09305 5.07407 9.22594 3.15747 12.7824 2.83722C13.2758 2.79008 13.3932 2.61377 14.0948 3.21186C14.8967 3.89539 15.147 4.76835 14.7903 5.19584Z" fill="white"/>
</svg>
