<svg width="28" height="28" viewBox="0 0 28 28" fill="none" xmlns="http://www.w3.org/2000/svg">
<path d="M27.0574 5.23071V26.973H22.7377V25.1563C21.6167 26.5237 19.9932 27.2075 17.8672 27.2075C16.3983 27.2075 15.0647 26.8754 13.8664 26.2112C12.6875 25.547 11.7598 24.5995 11.0833 23.3688C10.4068 22.1382 10.0686 20.7121 10.0686 19.0907C10.0686 17.4693 10.4068 16.0433 11.0833 14.8126C11.7598 13.5819 12.6875 12.6344 13.8664 11.9702C15.0647 11.3061 16.3983 10.974 17.8672 10.974C19.858 10.974 21.4138 11.6089 22.5348 12.8786V5.23071H27.0574ZM18.65 23.4568C19.7903 23.4568 20.7373 23.0661 21.4911 22.2847C22.2449 21.4837 22.6218 20.4191 22.6218 19.0907C22.6218 17.7623 22.2449 16.7075 21.4911 15.9261C20.7373 15.1251 19.7903 14.7247 18.65 14.7247C17.4903 14.7247 16.5336 15.1251 15.7799 15.9261C15.0261 16.7075 14.6492 17.7623 14.6492 19.0907C14.6492 20.4191 15.0261 21.4837 15.7799 22.2847C16.5336 23.0661 17.4903 23.4568 18.65 23.4568Z" fill="white"/>
<path d="M17.3767 8.11187C17.2247 8.29407 16.9867 8.30111 16.7694 8.33176C12.7605 8.6621 9.15704 11.179 8.05985 15.2146C7.99615 15.4481 7.99675 15.6046 7.8652 15.7622C7.55234 16.1372 6.78504 16.0047 6.15416 15.467C5.52328 14.9292 5.40603 14.6841 5.53621 14.1774C5.88913 12.8113 6.37751 11.5247 7.59381 10.067C9.49136 7.79292 12.2738 6.40509 15.4516 6.15179C15.9714 6.10922 16.2812 6.01476 16.7942 6.45201C17.428 6.99834 17.6954 7.72992 17.3767 8.11187ZM13.7903 3.19584C13.6382 3.37804 13.468 3.42484 13.1831 3.45182C8.59558 3.81061 4.27223 7.75853 3.21909 11.8018C3.17283 11.9781 3.13558 12.2163 2.99523 12.3844C2.6093 12.847 1.7067 12.6832 0.922525 12.0147C0.120662 11.3312 0.309575 10.9591 0.419419 10.5131C0.841301 8.76197 1.70437 7.13517 2.95867 5.63196C5.09305 3.07407 8.22594 1.15747 11.7824 0.837219C12.2758 0.790079 12.3932 0.613769 13.0948 1.21186C13.8967 1.89539 14.147 2.76835 13.7903 3.19584Z" fill="white"/>
</svg>
