<svg xmlns="http://www.w3.org/2000/svg" width="333" height="338" fill="none" viewBox="0 0 333 338"><path fill="#3C354C" d="M333 337.526H66.3995V338H333V337.526Z"/><path fill="#57B894" d="M149.021 153.014C148.96 150.647 148.259 148.663 147.252 147.57L146.455 150.538V146.973C146.105 146.771 145.696 146.679 145.287 146.713C143.328 146.883 141.814 149.993 141.905 153.657C141.995 157.322 143.659 160.157 145.618 159.987C147.577 159.816 149.111 156.692 149.021 153.014Z"/><path fill="#000" d="M148.545 154.799C147.723 154.969 146.926 155.447 146.104 155.542C145.282 155.636 144.38 155.267 143.864 154.07C143.583 153.426 143.443 152.611 143.208 151.906C143.025 151.33 142.72 150.795 142.311 150.334C142.024 151.417 141.896 152.532 141.93 153.648C142.02 157.312 143.684 160.143 145.643 159.973C147.287 159.831 148.615 157.606 148.945 154.737C148.811 154.75 148.677 154.771 148.545 154.799V154.799Z" opacity=".1"/><path fill="#57B894" d="M311.827 128.544C310.073 126.882 308.104 125.888 306.576 125.751L308.144 128.402L305.563 125.803C305.163 125.884 304.799 126.083 304.526 126.371C303.228 127.791 304.401 131.01 307.142 133.609C309.883 136.208 313.155 137.179 314.448 135.777C315.741 134.376 314.553 131.129 311.827 128.544Z"/><path fill="#000" d="M312.759 130.139C312.288 130.793 312.058 131.659 311.532 132.26C311.005 132.861 310.083 133.183 308.836 132.658C308.159 132.374 307.463 131.872 306.781 131.517C306.229 131.215 305.616 131.023 304.982 130.954C305.566 131.927 306.288 132.82 307.127 133.609C309.868 136.208 313.14 137.179 314.433 135.777C315.516 134.603 314.864 132.137 313.01 129.836C312.918 129.931 312.835 130.032 312.759 130.139Z" opacity=".1"/><path fill="#FFC1C7" d="M183.002 138.23L174.373 133.496C174.373 133.496 153.516 130.779 156.392 121.268C159.269 111.758 173.656 121.268 173.656 121.268L183.002 127.342V138.23Z"/><path fill="#000" d="M183.002 138.23L174.373 133.496C174.373 133.496 153.516 130.779 156.392 121.268C159.269 111.758 173.656 121.268 173.656 121.268L183.002 127.342V138.23Z" opacity=".1"/><path fill="#FFC1C7" d="M214.643 89.9963C214.643 89.9963 193.792 104.264 193.792 99.5067C193.792 96.6664 190.153 87.8945 187.247 81.3665C185.322 77.0397 183.739 73.6928 183.739 73.6928L205.287 68.2583C204.625 71.551 204.707 74.9388 205.528 78.1995C206.799 83.1143 210.076 87.3549 214.643 89.9963V89.9963Z"/><path fill="#FFC1C7" d="M171.511 211.104C171.511 211.104 154.974 245.751 160.722 258.655C160.722 258.655 142.747 310.288 136.994 312.324C131.241 314.359 151.376 317.758 151.376 317.758C151.376 317.758 175.094 287.868 176.523 264.09C177.951 240.312 203.859 215.866 203.859 215.866L171.511 211.104Z"/><path fill="#FFC1C7" d="M209.597 225.182C209.597 225.182 218.943 253.718 231.171 261.869C231.171 261.869 256.342 301.27 252.719 313.497C252.719 313.497 267.102 315.538 267.823 313.497C267.823 313.497 261.349 270.698 245.528 253.718C229.707 236.737 236.939 216.339 236.939 216.339L209.597 225.182Z"/><path fill="#F2F2F2" d="M146.325 313.005C146.325 313.005 137.695 306.212 131.226 311.646C124.756 317.081 113.245 315.722 104.616 313.005C95.9862 310.288 96.7078 317.081 116.843 325.91C136.979 334.738 148.484 336.798 148.484 336.798C148.484 336.798 151.361 325.91 151.361 323.211C151.361 320.513 153.15 315.414 153.15 315.414L146.325 313.005Z"/><path fill="#F2F2F2" d="M259.95 312.139C259.95 312.139 251.321 307.405 249.883 316.214C248.445 325.024 227.588 330.482 227.588 330.482C227.588 330.482 217.52 339.311 248.445 336.58C279.369 333.848 277.209 328.428 277.209 328.428L267.417 310.846L259.95 312.139Z"/><path fill="#3F3D56" d="M183.002 179.67C183.002 179.67 160.707 209.56 169.336 212.954C177.966 216.348 177.249 207.52 185.874 217.03C194.498 226.54 216.798 221.764 219.675 219.747C222.551 217.731 229.742 208.859 235.495 209.56C241.248 210.261 226.134 174.913 226.134 174.913L183.002 179.67Z"/><path fill="#000" d="M203.584 75.2692C200.507 77.9817 198.332 82.5831 193.792 82.5831C191.547 82.5862 189.323 82.1729 187.247 81.3665C185.322 77.0397 183.739 73.6928 183.739 73.6928L205.287 68.2583C204.586 72.1496 202.847 72.5046 203.584 75.2692Z" opacity=".1"/><path fill="#FFC1C7" d="M193.791 81.1627C203.323 81.1627 211.05 73.8634 211.05 64.8592C211.05 55.855 203.323 48.5557 193.791 48.5557C184.26 48.5557 176.533 55.855 176.533 64.8592C176.533 73.8634 184.26 81.1627 193.791 81.1627Z"/><path fill="#F2F2F2" d="M203.859 87.9604C203.859 87.9604 196.402 95.1086 192.94 95.6104C189.477 96.1122 176.523 117.169 180.126 134.154C183.729 151.139 175.811 186.463 179.409 188.499C183.007 190.534 240.547 181.029 240.547 181.029L203.859 87.9604Z"/><path fill="#6A42F4" d="M211.05 84.5615C211.05 84.5615 198.106 80.4856 193.792 102.224C189.477 123.962 183.724 105.623 183.724 133.467C183.724 161.312 181.564 171.514 185.162 195.287C188.76 219.061 191.632 219.066 187.317 227.217C183.002 235.369 233.341 233.334 245.568 217.707C257.796 202.08 241.97 143.659 235.5 134.826C229.031 125.992 229.026 98.8247 223.974 92.0315C222.465 90.0272 220.542 88.3321 218.321 87.0483C216.1 85.7645 213.627 84.9186 211.05 84.5615V84.5615Z"/><path fill="#2F2E41" d="M210.665 217.532L204.295 210.005L183.964 118.347L197.63 94.2517C198.784 92.2147 200.444 90.4724 202.467 89.1739C204.49 87.8753 206.816 87.0594 209.246 86.7958C211.663 86.5151 214.115 86.8 216.387 87.6255C218.659 88.4511 220.681 89.7918 222.276 91.5297C242.055 112.804 251.983 178.771 252.394 181.568L252.434 181.833L250.429 186.761L239.905 209.044L210.665 217.532ZM206.3 209.115L211.431 215.174L238.312 207.344L248.415 185.957L250.214 181.568C249.502 176.939 239.394 113.007 220.647 92.8505C219.263 91.3717 217.521 90.2314 215.569 89.5267C213.617 88.822 211.514 88.574 209.439 88.8037C207.363 89.0335 205.378 89.7342 203.651 90.8461C201.925 91.958 200.509 93.448 199.524 95.189L186.234 118.636L206.3 209.115Z"/><path fill="#6A42F4" d="M167.182 126.002L148.494 110.3C148.293 110.129 148.163 109.895 148.129 109.641C148.095 109.387 148.159 109.13 148.309 108.917L148.54 108.586C148.62 108.468 148.726 108.369 148.852 108.295C148.978 108.221 149.119 108.174 149.266 108.157C149.413 108.141 149.562 108.156 149.703 108.2C149.843 108.245 149.971 108.319 150.078 108.416L167.116 123.327C167.312 123.496 167.47 123.7 167.58 123.927C167.69 124.155 167.75 124.401 167.756 124.651C167.762 124.902 167.715 125.15 167.616 125.383C167.517 125.615 167.369 125.825 167.182 126.002V126.002Z"/><path fill="#192534" d="M167.182 126.002L148.494 110.3C148.293 110.129 148.163 109.895 148.129 109.641C148.095 109.387 148.159 109.13 148.309 108.917L148.54 108.586L167.136 124.34C167.259 124.444 167.359 124.57 167.428 124.712C167.497 124.853 167.535 125.006 167.539 125.162C167.543 125.318 167.514 125.472 167.452 125.617C167.391 125.761 167.299 125.892 167.182 126.002V126.002Z"/><path fill="#FFC1C7" d="M222.556 129.396C222.556 129.396 195.946 127.36 190.915 118.508C185.884 109.656 172.934 114.432 176.533 118.508C180.131 122.584 179.409 132.094 189.477 132.776C199.544 133.458 224.711 138.229 224.711 138.229L222.556 129.396Z"/><path fill="#2F2E41" d="M251.321 181.706C251.321 181.706 233.341 183.064 229.026 200.726C224.711 218.389 205.297 209.56 205.297 209.56C205.297 209.56 203.138 255.753 234.779 244.207C266.42 232.661 273.616 210.918 273.616 208.201C273.616 205.484 252.043 189.18 251.321 181.706Z"/><path fill="#000" d="M206.736 212.954C206.736 212.954 226.134 221.787 230.464 204.125C234.573 187.301 251.065 185.27 252.629 185.114C251.955 184.072 251.51 182.913 251.321 181.706C251.321 181.706 233.341 183.064 229.026 200.726C224.711 218.389 205.297 209.56 205.297 209.56C205.297 209.56 204.596 224.637 209.893 235.412C206.169 225.125 206.736 212.954 206.736 212.954Z" opacity=".1"/><path fill="#000" d="M273.461 209.238C273.545 208.903 273.597 208.56 273.616 208.216C273.616 205.891 257.826 193.616 252.814 185.441C253.877 191.756 268.55 203.804 273.461 209.238Z" opacity=".1"/><path fill="#2F2E41" d="M171.511 53.422C170.509 56.3948 173.751 59.4009 177.024 59.7133C180.296 60.0257 183.468 58.544 186.465 57.2185C189.462 55.893 192.809 54.6528 196.011 55.4575C199.519 56.3333 201.855 59.4151 203.413 62.4921C204.774 65.1835 205.766 68.0279 206.365 70.9563C207.006 74.0901 207.302 77.5364 209.582 79.9034C211.862 82.2703 215.646 82.9094 219.103 82.8952C222.561 82.881 226.059 82.4218 229.392 83.2265C236.006 84.855 240.101 91.0801 242.461 97.1253C244.821 103.17 246.24 109.755 250.514 114.787C254.077 118.991 259.274 121.656 264.481 123.867C267.107 124.979 269.828 126.016 272.694 126.272C275.561 126.527 278.637 125.898 280.712 124.042C283.052 121.969 283.804 118.806 284.441 115.843C285.368 111.545 286.295 107.128 285.528 102.796C284.526 97.1158 280.662 92.1215 279.775 86.4172C278.913 80.8691 280.943 75.2689 280.737 69.6639C280.391 60.2814 273.08 51.4858 263.493 48.9153C259.985 47.9685 256.302 47.7981 252.935 46.5483C248.545 44.8962 245.162 41.573 241.574 38.6711C232.998 31.7511 222.759 26.9192 211.752 24.5973C204.365 23.0493 195.626 23.0256 190.404 28.1808C188.284 30.2779 186.896 33.1136 184.19 34.5148C182.802 35.2391 181.208 35.4994 179.715 35.987C172.338 38.3824 168.099 47.0643 170.96 53.9001"/><path fill="#000" d="M277.034 119.479C274.168 119.223 271.446 118.186 268.82 117.074C263.614 114.863 258.422 112.198 254.854 107.994C250.579 102.962 249.156 96.3819 246.801 90.332C244.446 84.2821 240.346 78.0618 233.731 76.4333C230.399 75.6096 226.886 76.0877 223.443 76.1019C220.001 76.1161 216.252 75.5149 213.922 73.1101C211.592 70.7053 211.346 67.2969 210.705 64.163C210.106 61.2344 209.114 58.39 207.753 55.6988C206.194 52.6218 203.849 49.5448 200.351 48.6643C197.149 47.8595 193.802 49.0998 190.805 50.4253C187.808 51.7508 184.661 53.2325 181.363 52.92C178.066 52.6076 174.849 49.6063 175.851 46.6287L175.35 47.1021C174.272 44.4239 174.152 41.4859 175.009 38.7373C170.765 42.5008 168.865 48.7258 171.03 53.8858L171.531 53.4124C170.529 56.3853 173.771 59.3913 177.044 59.7037C180.316 60.0162 183.488 58.5345 186.485 57.209C189.482 55.8835 192.829 54.6432 196.032 55.448C199.539 56.3237 201.875 59.4055 203.433 62.4825C204.794 65.1739 205.786 68.0183 206.385 70.9467C207.026 74.0806 207.322 77.5268 209.602 79.8938C211.882 82.2607 215.666 82.8998 219.124 82.8856C222.581 82.8714 226.079 82.4122 229.412 83.217C236.027 84.8454 240.121 91.0705 242.481 97.1157C244.841 103.161 246.26 109.746 250.534 114.778C254.097 118.982 259.294 121.647 264.501 123.857C267.127 124.97 269.848 126.007 272.714 126.262C275.581 126.518 278.658 125.888 280.732 124.033C282.496 122.47 283.358 120.283 283.95 118.03C281.877 119.222 279.445 119.732 277.034 119.479Z" opacity=".1"/><path fill="#6A42F4" d="M203.859 94.0718C203.859 94.0718 201.699 109.017 209.612 112.416C217.525 115.815 223.273 127.342 223.273 127.342L216.803 128.7C216.803 128.7 214.643 138.211 220.396 140.928C226.149 143.645 241.97 140.928 241.97 140.928C241.97 140.928 249.166 137.529 243.408 126.66C237.65 115.791 221.123 92.0362 221.123 92.0362C221.123 92.0362 212.489 83.2028 203.859 94.0718Z"/><path fill="#FFC1C7" d="M205.964 69.9951C207.876 69.9951 209.427 67.7994 209.427 65.0908C209.427 62.3823 207.876 60.1865 205.964 60.1865C204.051 60.1865 202.501 62.3823 202.501 65.0908C202.501 67.7994 204.051 69.9951 205.964 69.9951Z"/><path fill="#F2F2F2" d="M205.964 67.2683C206.919 67.2683 207.693 66.5371 207.693 65.6351C207.693 64.7332 206.919 64.002 205.964 64.002C205.009 64.002 204.235 64.7332 204.235 65.6351C204.235 66.5371 205.009 67.2683 205.964 67.2683Z"/><path fill="#F2F2F2" d="M205.294 68.455C205.795 67.5137 205.855 66.5859 205.427 66.3826C204.999 66.1794 204.246 66.7777 203.745 67.719C203.244 68.6603 203.185 69.5881 203.612 69.7913C204.04 69.9945 204.793 69.3962 205.294 68.455Z"/><path fill="#57B894" d="M277.31 17.1509C277.249 14.8076 276.548 12.8005 275.541 11.7069L274.744 14.6751V11.1105C274.394 10.9077 273.985 10.8164 273.576 10.8501C271.617 11.0205 270.103 14.1307 270.194 17.7947C270.284 21.4587 271.947 24.2943 273.907 24.1239C275.866 23.9535 277.4 20.8291 277.31 17.1509Z"/><path fill="#000" d="M276.833 18.9357C276.012 19.1062 275.215 19.5843 274.393 19.679C273.571 19.7736 272.669 19.4044 272.153 18.2067C271.872 17.5629 271.732 16.7487 271.497 16.0433C271.314 15.467 271.009 14.9321 270.599 14.4717C270.313 15.5547 270.185 16.6696 270.219 17.7854C270.309 21.4494 271.973 24.2803 273.932 24.1099C275.576 23.9679 276.904 21.7429 277.234 18.8742C277.1 18.8874 276.966 18.9079 276.833 18.9357V18.9357Z" opacity=".1"/><path fill="#57B894" d="M313.641 210.265C315.912 209.319 317.6 207.932 318.282 206.63L315.1 207.065L318.608 205.721C318.671 205.339 318.604 204.948 318.417 204.604C317.5 202.961 313.877 202.833 310.329 204.32C306.781 205.806 304.646 208.339 305.563 210C306.48 211.662 310.088 211.752 313.641 210.265Z"/><path fill="#000" d="M311.727 210.526C311.226 209.877 310.474 209.366 310.068 208.684C309.662 208.002 309.672 207.075 310.645 206.166C311.146 205.692 311.908 205.219 312.504 204.746C313.001 204.369 313.408 203.898 313.702 203.363C312.532 203.533 311.393 203.851 310.314 204.31C306.766 205.797 304.631 208.329 305.548 209.991C306.32 211.368 308.996 211.681 311.933 210.866C311.871 210.749 311.803 210.635 311.727 210.526Z" opacity=".1"/><path fill="#57B894" d="M120.707 232.041C122.977 231.095 124.666 229.708 125.347 228.406L122.165 228.841L125.673 227.497C125.736 227.115 125.669 226.724 125.483 226.38C124.566 224.737 120.942 224.609 117.394 226.096C113.846 227.582 111.712 230.115 112.629 231.776C113.546 233.438 117.154 233.528 120.707 232.041Z"/><path fill="#000" d="M118.793 232.301C118.291 231.653 117.54 231.142 117.134 230.46C116.728 229.778 116.738 228.851 117.71 227.942C118.211 227.468 118.973 226.995 119.569 226.521C120.066 226.144 120.474 225.674 120.767 225.139C119.598 225.309 118.458 225.627 117.379 226.086C113.831 227.572 111.697 230.105 112.614 231.767C113.385 233.144 116.061 233.457 118.998 232.642C118.937 232.525 118.868 232.411 118.793 232.301Z" opacity=".1"/><path fill="#3C354C" d="M95.2145 17.9888H31.5712V23.6694H95.2145V17.9888Z" opacity=".3"/><path fill="#000" d="M124.029 91.3028L111.11 70.0619H0V0.473633H146.33V70.0619H124.029V91.3028ZM0.501129 69.5885H111.401L123.528 89.5324V69.5885H145.828V0.947022H0.501129V69.5885Z" opacity=".1"/><path fill="#F2F2F2" d="M124.029 90.8292L111.11 69.5882H0V0H146.33V69.5882H124.029V90.8292ZM0.501129 69.1148H111.401L123.528 89.0587V69.1148H145.828V0.473389H0.501129V69.1148Z"/><path fill="#3C354C" d="M16.5373 28.6399C21.1039 28.6399 24.8059 25.1428 24.8059 20.829C24.8059 16.5151 21.1039 13.0181 16.5373 13.0181C11.9707 13.0181 8.26868 16.5151 8.26868 20.829C8.26868 25.1428 11.9707 28.6399 16.5373 28.6399Z" opacity=".3"/><path fill="#6A42F4" d="M120.02 56.0967C121.681 56.0967 123.027 54.825 123.027 53.2564C123.027 51.6877 121.681 50.416 120.02 50.416C118.36 50.416 117.014 51.6877 117.014 53.2564C117.014 54.825 118.36 56.0967 120.02 56.0967Z" opacity=".3"/><path fill="#6A42F4" d="M127.537 56.0967C129.198 56.0967 130.544 54.825 130.544 53.2564C130.544 51.6877 129.198 50.416 127.537 50.416C125.877 50.416 124.531 51.6877 124.531 53.2564C124.531 54.825 125.877 56.0967 127.537 56.0967Z" opacity=".3"/><path fill="#6A42F4" d="M135.054 56.0967C136.715 56.0967 138.061 54.825 138.061 53.2564C138.061 51.6877 136.715 50.416 135.054 50.416C133.394 50.416 132.047 51.6877 132.047 53.2564C132.047 54.825 133.394 56.0967 135.054 56.0967Z" opacity=".3"/></svg>