<svg xmlns="http://www.w3.org/2000/svg" width="571" height="338" fill="none" viewBox="0 0 571 338"><g clip-path="url(#clip0)"><path fill="#6A42F4" d="M83.4447 0.038724C79.0024 -0.0883023 74.4499 0.0387197 70.2831 1.32003C58.9458 4.81049 53.572 16.2318 55.3192 26.1012C57.0663 35.9706 64.2534 44.5697 71.7106 52.4288C79.1678 60.2878 87.2477 68.0585 91.3373 77.453C93.3766 82.1419 94.3301 87.3942 92.2578 92.0776C89.061 99.296 79.4213 103.328 70.1674 104.167C60.9134 105.007 51.6209 103.372 42.3339 102.825C38.4372 102.599 34.4303 102.571 30.7596 103.626C26.7306 104.775 23.3741 107.122 20.2876 109.569C8.24477 119.167 -1.39497 132.262 0.164803 146.02C1.92851 161.611 17.6586 173.932 34.8877 180.543C40.5922 182.752 46.6274 184.509 51.6485 187.634C64.8762 195.88 67.847 211.344 66.5297 224.991C65.2125 238.638 60.726 252.302 63.2228 265.827C66.1604 281.562 79.1623 295.778 96.7001 302.417C112.325 308.332 131.881 307.939 145.753 299.594C152.516 295.518 157.631 289.857 162.078 284.003C168.683 275.358 174.139 265.89 178.31 255.837C180.245 251.148 182.063 246.105 186.577 242.847C189.333 240.842 192.905 239.721 196.438 238.848C207.086 236.219 218.302 235.501 229.05 233.16C239.797 230.818 250.611 226.438 256.453 218.651C264.721 207.605 260.862 193.456 260.901 180.466C260.967 150.83 282.457 124.304 290.388 95.4134C292.978 85.9748 293.943 75.531 288.156 67.1086C284.226 61.3924 277.596 57.2668 270.629 54.0801C255.301 47.0716 237.879 43.9512 220.744 40.9136C196.928 36.6941 168.009 36.1473 149.551 22.4948C131.836 9.38896 107.602 0.038724 83.4447 0.038724Z" opacity=".2"/><path fill="#F5F5F5" d="M314.711 338C456.255 338 571 307.21 571 269.229C571 231.248 456.255 200.458 314.711 200.458C173.167 200.458 58.4227 231.248 58.4227 269.229C58.4227 307.21 173.167 338 314.711 338Z"/><path fill="#6A42F4" d="M527.557 103.201C527.557 103.201 507.809 122.989 518.959 152.354C530.109 181.719 499.845 230.553 499.845 230.553C499.845 230.553 500.17 230.503 500.771 230.398C541.331 223.218 561.487 176.738 538.933 142.203C530.55 129.368 523.666 114.324 527.557 103.201Z"/><path stroke="#535461" stroke-miterlimit="10" stroke-width="2" d="M527.557 103.201C527.557 103.201 516.408 127.457 527.557 147.246C538.707 167.034 529.47 222.572 499.845 230.553"/><path fill="#6A42F4" d="M562.732 183.244C562.732 183.244 540.195 179.648 538.145 199.884C536.095 220.12 494.813 222.926 494.813 222.926L495.585 223.439C529.668 245.857 562.275 237.721 557.314 207.975C555.512 196.885 555.661 185.768 562.732 183.244Z"/><path fill="#F5F5F5" d="M562.732 183.244C562.732 183.244 540.195 179.648 538.145 199.884C536.095 220.12 494.813 222.926 494.813 222.926L495.585 223.439C529.668 245.857 562.275 237.721 557.314 207.975C555.512 196.885 555.661 185.768 562.732 183.244Z" opacity=".2"/><path stroke="#535461" stroke-miterlimit="10" stroke-width="2" d="M562.732 183.244C562.732 183.244 545.238 187.11 546.677 203.027C548.115 218.944 520.701 238.069 494.813 222.909"/><path fill="url(#paint0_linear)" d="M510.576 231.917H475.17C475.984 230.275 476.407 228.465 476.404 226.631V65.054C476.404 61.9033 475.155 58.8817 472.932 56.6538C470.709 54.4259 467.693 53.1743 464.549 53.1743H190.436C188.879 53.1736 187.336 53.4803 185.897 54.077C184.458 54.6737 183.151 55.5486 182.049 56.6519C180.948 57.7551 180.074 59.0649 179.478 60.5066C178.882 61.9483 178.575 63.4935 178.575 65.054V226.637C178.572 228.471 178.995 230.28 179.81 231.922H143.152C142.32 231.922 141.523 232.253 140.935 232.843C140.347 233.432 140.016 234.231 140.016 235.065V237.6C140.02 242.258 141.87 246.723 145.159 250.016C148.447 253.308 152.905 255.157 157.554 255.157H496.174C500.826 255.157 505.286 253.305 508.575 250.01C511.864 246.714 513.712 242.244 513.712 237.583V235.048C513.709 234.217 513.377 233.42 512.79 232.833C512.202 232.246 511.406 231.917 510.576 231.917ZM292.378 241.968L289.358 238.517H364.712L361.35 241.974L292.378 241.968Z"/><path fill="#535461" d="M460.2 55.4609H194.763C187.683 55.4609 181.943 61.2124 181.943 68.3071V223.76C181.943 230.854 187.683 236.606 194.763 236.606H460.2C467.281 236.606 473.02 230.854 473.02 223.76V68.3071C473.02 61.2124 467.281 55.4609 460.2 55.4609Z"/><path fill="#fff" d="M466.274 81.8657H188.066V229.851H466.274V81.8657Z"/><path fill="#fff" d="M327.173 71.4271C328.528 71.4271 329.626 70.3268 329.626 68.9694C329.626 67.6121 328.528 66.5117 327.173 66.5117C325.818 66.5117 324.72 67.6121 324.72 68.9694C324.72 70.3268 325.818 71.4271 327.173 71.4271Z"/><path fill="#535461" d="M370.13 230.155L360.568 239.98H293.161L284.524 230.155H147.319C146.506 230.155 145.727 230.478 145.152 231.054C144.577 231.63 144.255 232.411 144.255 233.226V235.7C144.255 240.255 146.06 244.624 149.275 247.845C152.49 251.066 156.849 252.876 161.396 252.876H492.338C496.885 252.876 501.244 251.066 504.459 247.845C507.674 244.624 509.48 240.255 509.48 235.7V233.226C509.48 232.411 509.157 231.63 508.582 231.054C508.007 230.478 507.228 230.155 506.415 230.155H370.13Z"/><path fill="url(#paint1_linear)" d="M274.703 87.0684H157.345C154.494 87.0654 151.758 88.1971 149.74 90.2146C147.721 92.232 146.585 94.9701 146.58 97.8269V260.752C146.585 263.609 147.721 266.347 149.74 268.364C151.758 270.382 154.494 271.513 157.345 271.51H274.703C277.554 271.513 280.289 270.382 282.308 268.364C284.326 266.347 285.462 263.609 285.467 260.752V97.8269C285.462 94.9701 284.326 92.232 282.308 90.2146C280.289 88.1971 277.554 87.0654 274.703 87.0684Z"/><path fill="#535461" d="M272.79 89.2773H159.252C153.164 89.2773 148.228 94.2227 148.228 100.323V258.83C148.228 264.93 153.164 269.875 159.252 269.875H272.79C278.878 269.875 283.813 264.93 283.813 258.83V100.323C283.813 94.2227 278.878 89.2773 272.79 89.2773Z"/><path fill="#fff" d="M276.924 106.359H155.118V252.793H276.924V106.359Z"/><path fill="#fff" d="M215.47 99.2185C216.383 99.2185 217.123 98.4767 217.123 97.5616C217.123 96.6466 216.383 95.9048 215.47 95.9048C214.557 95.9048 213.816 96.6466 213.816 97.5616C213.816 98.4767 214.557 99.2185 215.47 99.2185Z"/><path fill="#fff" d="M215.47 266.01C218.209 266.01 220.43 263.784 220.43 261.039C220.43 258.294 218.209 256.068 215.47 256.068C212.73 256.068 210.509 258.294 210.509 261.039C210.509 263.784 212.73 266.01 215.47 266.01Z"/><path fill="url(#paint2_linear)" d="M185.25 142.297H124.992C124.209 142.295 123.434 142.448 122.711 142.747C121.987 143.046 121.33 143.484 120.775 144.038C120.221 144.591 119.781 145.248 119.48 145.972C119.18 146.696 119.024 147.472 119.023 148.256V280.485C119.024 281.269 119.18 282.045 119.48 282.769C119.781 283.492 120.221 284.15 120.775 284.703C121.33 285.257 121.987 285.695 122.711 285.994C123.434 286.292 124.209 286.445 124.992 286.444H185.25C186.032 286.445 186.807 286.292 187.531 285.994C188.254 285.695 188.912 285.257 189.466 284.703C190.02 284.15 190.46 283.492 190.761 282.769C191.062 282.045 191.217 281.269 191.219 280.485V148.256C191.217 147.472 191.062 146.696 190.761 145.972C190.46 145.248 190.02 144.591 189.466 144.038C188.912 143.484 188.254 143.046 187.531 142.747C186.807 142.448 186.032 142.295 185.25 142.297V142.297Z"/><path fill="#535461" d="M184.605 143.401H125.631C122.283 143.401 119.568 146.121 119.568 149.477V279.816C119.568 283.172 122.283 285.892 125.631 285.892H184.605C187.953 285.892 190.668 283.172 190.668 279.816V149.477C190.668 146.121 187.953 143.401 184.605 143.401Z"/><path fill="#fff" d="M185.432 156.656H124.804V272.637H185.432V156.656Z"/><path fill="#fff" d="M147.953 150.581C148.257 150.581 148.504 150.334 148.504 150.029C148.504 149.724 148.257 149.477 147.953 149.477C147.648 149.477 147.402 149.724 147.402 150.029C147.402 150.334 147.648 150.581 147.953 150.581Z"/><path fill="#fff" d="M162.283 149.477H151.26C150.956 149.477 150.709 149.724 150.709 150.029C150.709 150.334 150.956 150.581 151.26 150.581H162.283C162.587 150.581 162.834 150.334 162.834 150.029C162.834 149.724 162.587 149.477 162.283 149.477Z"/><path fill="#fff" d="M154.842 282.026C156.973 282.026 158.7 280.295 158.7 278.16C158.7 276.025 156.973 274.294 154.842 274.294C152.712 274.294 150.984 276.025 150.984 278.16C150.984 280.295 152.712 282.026 154.842 282.026Z"/><path stroke="#535461" stroke-miterlimit="10" stroke-width="2" d="M112.287 296.164C112.287 296.164 104.979 271.311 113.66 253.008C117.355 245.358 118.473 236.712 116.845 228.371C116.041 224.419 114.877 220.55 113.368 216.812"/><path fill="#6A42F4" d="M118.747 205.246C118.747 208.295 113.235 217.126 113.235 217.126C113.235 217.126 107.724 208.29 107.724 205.246C107.724 203.782 108.305 202.377 109.338 201.341C110.372 200.305 111.774 199.724 113.235 199.724C114.697 199.724 116.099 200.305 117.133 201.341C118.166 202.377 118.747 203.782 118.747 205.246Z"/><path fill="#6A42F4" d="M127.869 222.125C126.215 224.682 116.801 229.1 116.801 229.1C116.801 229.1 116.972 218.684 118.626 216.127C119.002 215.483 119.504 214.921 120.103 214.477C120.701 214.033 121.384 213.715 122.108 213.542C122.833 213.369 123.585 213.346 124.319 213.472C125.053 213.599 125.754 213.874 126.379 214.279C127.005 214.685 127.541 215.213 127.957 215.833C128.373 216.452 128.659 217.15 128.798 217.883C128.937 218.616 128.927 219.37 128.767 220.099C128.607 220.828 128.302 221.517 127.869 222.125V222.125Z"/><path fill="#6A42F4" d="M127.45 250.959C124.733 252.329 114.382 251.384 114.382 251.384C114.382 251.384 119.778 242.482 122.489 241.112C123.784 240.526 125.255 240.463 126.595 240.937C127.934 241.412 129.04 242.386 129.68 243.657C130.32 244.929 130.445 246.398 130.029 247.76C129.614 249.121 128.69 250.27 127.45 250.965V250.959Z"/><path fill="#6A42F4" d="M122.247 272.714C119.8 274.525 109.438 275.343 109.438 275.343C109.438 275.343 113.252 265.656 115.699 263.844C116.877 263.057 118.311 262.754 119.705 262.998C121.1 263.242 122.347 264.014 123.189 265.154C124.031 266.294 124.402 267.715 124.227 269.123C124.052 270.53 123.343 271.816 122.247 272.714V272.714Z"/><path fill="#6A42F4" d="M105.222 229.691C107.426 231.811 117.562 234.015 117.562 234.015C117.562 234.015 115.076 223.903 112.894 221.782C112.384 221.237 111.769 220.801 111.086 220.501C110.403 220.2 109.667 220.042 108.921 220.035C108.176 220.029 107.437 220.174 106.749 220.461C106.06 220.749 105.438 221.174 104.918 221.71C104.399 222.246 103.993 222.882 103.726 223.579C103.459 224.277 103.336 225.021 103.364 225.768C103.392 226.515 103.572 227.248 103.891 227.923C104.21 228.598 104.663 229.201 105.222 229.696V229.691Z"/><path fill="#6A42F4" d="M99.4565 255.207C102.174 256.576 112.524 255.632 112.524 255.632C112.524 255.632 107.129 246.729 104.417 245.359C103.768 244.995 103.052 244.767 102.313 244.688C101.573 244.608 100.825 244.68 100.114 244.898C99.403 245.116 98.7432 245.475 98.1745 245.956C97.6058 246.436 97.1399 247.026 96.805 247.692C96.47 248.357 96.2729 249.083 96.2255 249.827C96.178 250.571 96.2813 251.316 96.529 252.019C96.7767 252.721 97.1638 253.367 97.6669 253.915C98.17 254.464 98.7788 254.905 99.4565 255.212V255.207Z"/><path fill="#6A42F4" d="M97.2518 280.777C99.699 282.589 110.061 283.406 110.061 283.406C110.061 283.406 106.247 273.719 103.8 271.908C102.622 271.12 101.188 270.817 99.7932 271.061C98.3988 271.305 97.1515 272.077 96.3097 273.217C95.4679 274.358 95.0962 275.779 95.2716 277.186C95.447 278.594 96.1561 279.88 97.2518 280.777Z"/><path fill="url(#paint3_linear)" d="M548.402 217.104C542.3 209.687 534.909 201.165 535.946 191.296C536.783 183.304 534.777 175.915 535.174 167.896C535.725 156.502 533.443 147.582 525.253 140.281C520.469 136.012 512.472 132.66 510.091 133.516C505.373 135.206 500.225 134.559 495.369 135.725C491.682 136.586 489.229 137.934 487.708 139.591C484.649 142.352 484.6 146.218 485.994 150.333C484.777 152.566 484.043 155.031 483.838 157.567C483.634 160.104 483.964 162.655 484.808 165.055C485.651 167.455 486.989 169.65 488.735 171.498C490.48 173.346 492.594 174.806 494.939 175.782C491.539 177.207 488.601 180.488 487.455 187.148C486.658 191.722 485.453 196.216 483.856 200.574C483.138 200.911 482.402 201.208 481.651 201.464C481.816 201.53 481.987 201.574 482.153 201.635C481.794 201.773 481.442 201.911 481.05 202.032C481.702 202.287 482.375 202.483 483.062 202.618C478.653 213.78 473.141 220.694 473.141 220.694C473.141 220.694 462.862 222.97 458.866 218.988C458.866 218.988 459.517 219.75 460.398 220.893C456.491 219.269 450.075 216.618 444.591 214.437C440.612 212.852 439.592 214.437 439.631 216.646C438.66 216.768 437.723 217.084 436.875 217.574C435.7 216.816 434.467 216.151 433.188 215.586C430.906 215.033 423.482 211.035 416.058 224.682C411.737 232.618 400.659 247.105 392.143 257.819C375.581 265.452 354.02 275.117 346.006 277.547H340.869C340.197 276.442 339.728 275.746 339.728 275.746L339.331 276.011L339.16 275.746C339.16 275.746 329.074 282.744 318.834 282.799C317.377 282.779 315.928 282.594 314.513 282.247C309.806 281.059 306.488 280.529 304.118 280.59C301.313 280.54 299.709 281.208 298.739 282.468C298.608 282.633 298.489 282.806 298.38 282.987V282.987C298.272 283.166 298.172 283.35 298.083 283.539V283.539C297.995 283.738 297.906 283.948 297.829 284.163C297.797 284.355 297.81 284.552 297.865 284.739C297.92 284.925 298.017 285.097 298.149 285.24C298.286 285.433 298.435 285.618 298.595 285.792L298.882 286.102C300.172 287.438 302.52 289.211 305.441 291.188C306.284 291.74 307.177 292.348 308.108 292.95L309.877 294.055L311.459 295.043L312.093 295.435L312.799 295.866L314.061 296.634L314.81 297.087L316.227 297.932L317.373 298.611C320.372 300.384 323.359 302.101 326.054 303.626L327.939 304.752L328.121 304.852L329.333 305.531L331.428 306.696L332.866 307.492L333.539 307.862L334.261 308.259L334.404 308.337L335.661 309.022C335.919 309.065 336.184 309.052 336.437 308.983C336.69 308.915 336.925 308.792 337.127 308.624C337.49 307.077 338.378 303.764 339.331 303.51C340.285 303.256 344.413 296.026 345.576 291.188H356.72C358.916 291 361.096 290.664 363.246 290.183C360.369 292.238 357.52 293.53 355.304 292.978C350.619 291.812 346.182 294.673 345.736 297.495C345.736 297.556 345.697 297.611 345.681 297.672C345.664 297.733 345.653 297.788 345.642 297.843C345.631 297.898 345.609 297.981 345.598 298.053C345.587 298.125 345.598 298.169 345.598 298.23C345.598 298.291 345.598 298.368 345.598 298.44C345.598 298.512 345.598 298.556 345.598 298.611C345.598 298.666 345.598 298.755 345.598 298.826C345.598 298.898 345.598 298.937 345.598 298.992C345.598 299.047 345.631 299.141 345.653 299.218C345.675 299.296 345.653 299.318 345.692 299.362C345.726 299.462 345.767 299.56 345.813 299.655L345.84 299.727C345.902 299.847 345.972 299.963 346.05 300.074L346.138 300.19C346.193 300.268 346.254 300.345 346.32 300.417L346.447 300.544C346.513 300.61 346.585 300.676 346.656 300.743L346.811 300.87L347.059 301.052L347.24 301.174L347.538 301.35L347.736 301.455L348.111 301.632L348.299 301.715C348.497 301.798 348.707 301.875 348.933 301.947C349.291 302.063 349.715 302.184 350.195 302.306L350.674 302.422L351.374 302.582L351.743 302.665C352.221 302.768 352.728 302.871 353.265 302.974L354.009 303.112L354.615 303.223L356.009 303.466C356.88 303.615 357.79 303.764 358.765 303.907L361.168 304.272L364.299 304.719L364.993 304.813L366.096 304.968L367.71 305.183L368.813 305.327L371.673 305.691L372.566 305.802L374.368 306.023C376.738 306.31 379.031 306.575 381.142 306.812L383.584 307.089L384.818 307.227L385.369 307.282L386.847 307.442L387.668 307.53L388.682 307.635L390.109 307.784H390.264L391.179 307.878C391.293 307.891 391.409 307.879 391.519 307.844C391.629 307.809 391.73 307.751 391.817 307.675C391.903 307.599 391.973 307.505 392.022 307.4C392.07 307.296 392.097 307.182 392.099 307.066C392.099 307.039 392.099 307.006 392.099 306.973C392.183 306.844 392.229 306.695 392.231 306.542C392.255 305.18 392.427 303.824 392.744 302.499C392.805 302.273 392.876 302.041 392.953 301.809L393.042 301.544C393.141 301.262 393.24 300.991 393.356 300.688C393.439 300.482 393.51 300.272 393.571 300.058C393.571 299.992 393.609 299.925 393.631 299.854C393.653 299.782 393.686 299.627 393.708 299.511C394.855 295.584 393.471 288.261 393.075 285.384C392.947 284.464 392.737 283.559 392.446 282.677C392.518 282.684 392.59 282.684 392.661 282.677C393.253 282.459 393.81 282.156 394.315 281.777C402.736 278.767 409.835 275.327 412.079 271.88C415.711 270.919 419.57 271.324 422.925 273.018C427.285 275.188 460.266 285.975 475.621 290.956C478.377 293.337 480.538 294.728 481.734 294.623C481.734 294.623 501.283 297.794 509.143 291.608C509.843 292.094 510.284 292.353 510.284 292.353C510.284 292.353 521.704 286.67 523.418 279.275C523.969 276.878 524.47 273.344 524.983 269.434C527.632 266.759 529.122 263.145 529.128 259.376C529.486 246.961 534.287 232.778 537.847 220.164C542.168 220.506 543.838 219.689 547.801 217.728L547.625 217.502C547.906 217.336 548.154 217.226 548.402 217.104ZM482.93 235.7L480.725 234.965C481.465 233.976 482.102 232.914 482.627 231.795L482.93 235.7ZM470.644 240.924L483.872 248.877L483.988 250.496C483.827 251.727 483.864 252.976 484.098 254.196C478.267 249.004 471.444 242.703 470.639 240.919L470.644 240.924ZM465.243 229.326C463.799 228.73 462.603 228.189 461.782 227.741C462.884 227.819 463.931 227.885 464.846 227.935C465.027 228.383 465.16 228.85 465.243 229.326V229.326ZM429.815 242.289C429.815 242.289 432.097 237.174 437.239 245.702C438.038 247.027 439.51 249.137 441.455 251.749L426.486 249.745C428.249 247.005 429.434 244.459 429.815 242.294V242.289Z"/><path fill="#F7C4A7" d="M462.697 221.744C462.697 221.744 452.225 217.325 443.958 214.012C435.69 210.698 440.651 221.744 440.651 221.744C440.651 221.744 454.43 225.61 454.43 226.162C454.43 226.714 466.004 227.267 466.004 227.267L462.697 221.744Z"/><path fill="#000" d="M462.697 221.744C462.697 221.744 452.225 217.325 443.958 214.012C435.69 210.698 440.651 221.744 440.651 221.744C440.651 221.744 454.43 225.61 454.43 226.162C454.43 226.714 466.004 227.267 466.004 227.267L462.697 221.744Z" opacity=".05"/><path fill="#575988" d="M507.341 178.113C507.341 178.113 488.602 168.172 485.295 187.502C481.988 206.832 471.516 220.087 471.516 220.087C471.516 220.087 461.595 222.296 457.737 218.43C457.737 218.43 467.106 229.476 462.697 230.58C462.697 230.58 472.618 237.76 477.027 235.551C481.437 233.342 484.743 218.43 486.397 214.564C488.05 210.698 494.113 177.008 507.341 178.113Z"/><path fill="#000" d="M507.341 178.113C507.341 178.113 488.602 168.172 485.295 187.502C481.988 206.832 471.516 220.087 471.516 220.087C471.516 220.087 461.595 222.296 457.737 218.43C457.737 218.43 467.106 229.476 462.697 230.58C462.697 230.58 472.618 237.76 477.027 235.551C481.437 233.342 484.743 218.43 486.397 214.564C488.05 210.698 494.113 177.008 507.341 178.113Z" opacity=".1"/><path fill="#F7C4A7" d="M496.869 171.485C496.869 171.485 508.443 184.74 508.994 195.786C509.546 206.832 522.222 184.188 523.324 183.636C524.427 183.083 512.301 164.305 511.199 158.23C510.097 152.155 496.869 171.485 496.869 171.485Z"/><path fill="#F7C4A7" d="M504.861 177.146L497.558 183.774L501.003 197.719L510.372 188.883L509.27 180.046L504.861 177.146Z"/><path fill="#F7C4A7" d="M352.466 275.315H339.789L344.749 287.466L356.875 284.152L352.466 275.315Z"/><path fill="#000" d="M342.721 273.564C342.721 273.564 329.592 282.727 318.376 279.877C307.16 277.027 304.112 278.093 302.806 281.771C301.599 285.157 334.134 303.062 339.32 305.89C339.401 305.934 339.49 305.959 339.582 305.963C339.674 305.966 339.765 305.949 339.849 305.911C339.932 305.874 340.006 305.818 340.065 305.747C340.123 305.676 340.165 305.593 340.186 305.503C340.538 304.001 341.393 300.781 342.308 300.533C343.498 300.212 348.922 290.039 348.624 286.041C348.326 282.042 342.721 273.564 342.721 273.564Z" opacity=".1"/><path fill="#F3B5B7" d="M342.17 273.564C342.17 273.564 329.041 282.727 317.825 279.877C306.609 277.027 303.561 278.093 302.255 281.771C301.048 285.157 333.583 303.062 338.769 305.89C338.85 305.934 338.939 305.959 339.031 305.963C339.123 305.966 339.214 305.949 339.298 305.911C339.381 305.874 339.455 305.818 339.514 305.747C339.572 305.676 339.614 305.593 339.635 305.503C339.987 304.001 340.842 300.781 341.757 300.533C342.947 300.212 348.371 290.039 348.073 286.041C347.775 282.042 342.17 273.564 342.17 273.564Z"/><path fill="#575988" d="M450.572 251.567L413.644 246.596C413.644 246.596 353.568 275.315 346.403 275.867L348.056 288.57H359.079C363.489 288.57 406.479 279.181 412.542 269.792C416.049 268.858 419.777 269.251 423.014 270.897C428.525 273.658 481.437 290.779 481.437 290.779L450.572 251.567Z"/><path fill="#000" d="M450.572 251.567L413.644 246.596C413.644 246.596 353.568 275.315 346.403 275.867L348.056 288.57H359.079C363.489 288.57 406.479 279.181 412.542 269.792C416.049 268.858 419.777 269.251 423.014 270.897C428.525 273.658 481.437 290.779 481.437 290.779L450.572 251.567Z" opacity=".1"/><path fill="#F7C4A7" d="M384.984 268.688L378.921 276.42L384.984 279.734L393.802 273.106L384.984 268.688Z"/><path fill="#575988" d="M490.255 259.851C490.255 259.851 470.413 242.83 469.041 239.743C467.669 236.655 435.139 215.668 432.935 215.116C430.73 214.564 423.565 210.698 416.4 223.953C409.235 237.208 382.779 269.24 382.779 269.24C382.779 269.24 391.047 280.838 393.802 280.286C396.558 279.734 427.423 253.776 429.628 241.074C429.628 241.074 431.832 236.103 436.793 244.387C441.753 252.672 473.72 292.436 479.783 291.884C479.783 291.884 503.483 295.75 508.443 286.361C513.404 276.972 490.255 259.851 490.255 259.851Z"/><path fill="#DDDBE2" d="M501.554 178.941C501.554 178.941 494.664 181.979 494.113 194.681C493.562 207.384 481.437 228.923 481.437 228.923L482.539 254.329C482.539 254.329 495.767 267.583 496.869 275.868C497.971 284.152 507.341 289.675 507.341 289.675C507.341 289.675 518.364 284.152 520.018 276.972C521.671 269.793 522.773 252.119 525.529 245.492C528.285 238.864 526.631 197.443 526.631 197.443L518.364 183.083L513.955 178.113L502.381 191.368C502.381 191.368 496.042 182.807 501.554 178.941Z"/><path fill="#000" d="M485.295 246.044C485.295 246.044 483.641 226.162 488.602 221.744L498.522 193.577C498.522 193.577 502.105 180.046 501.554 178.941C501.003 177.837 488.602 189.711 488.602 189.711L480.334 218.982L482.539 249.91L485.295 246.044Z" opacity=".1"/><path fill="#575988" d="M484.743 246.044C484.743 246.044 483.09 226.162 488.05 221.744L497.971 193.577C497.971 193.577 501.829 179.77 501.278 178.665C500.727 177.561 488.05 189.711 488.05 189.711L479.783 218.982L481.988 249.91L484.743 246.044Z"/><path fill="#F7C4A7" d="M488.601 237.207C488.601 237.207 461.044 228.371 459.39 226.162C457.737 223.953 440.1 209.593 434.037 219.534C427.974 229.475 456.634 232.237 456.634 232.237L485.846 249.91L488.601 237.207Z"/><path fill="#000" d="M386.18 276.37L378.023 274.901C378.023 274.901 364.663 292.05 357.702 290.31C350.74 288.57 344.336 296.076 351.688 298.484C358.33 300.66 387.012 303.703 392.474 304.266C392.585 304.278 392.696 304.266 392.802 304.232C392.908 304.198 393.006 304.143 393.089 304.069C393.173 303.995 393.24 303.905 393.287 303.804C393.333 303.703 393.359 303.593 393.361 303.482C393.403 301.347 393.833 299.238 394.629 297.258C396.101 293.64 394.629 285.87 394.221 282.898C393.996 281.157 393.453 279.472 392.617 277.928L386.18 276.37Z" opacity=".1"/><path fill="#F3B5B7" d="M386.042 276.906L377.885 275.437C377.885 275.437 364.525 292.586 357.575 290.851C350.625 289.117 344.209 296.617 351.562 299.025C358.203 301.201 386.885 304.244 392.347 304.808C392.458 304.819 392.569 304.808 392.675 304.774C392.781 304.74 392.879 304.684 392.962 304.61C393.046 304.537 393.113 304.446 393.16 304.345C393.207 304.244 393.232 304.135 393.235 304.023C393.261 301.894 393.674 299.787 394.453 297.805C395.924 294.187 394.453 286.416 394.045 283.445C393.82 281.704 393.276 280.018 392.441 278.475L386.042 276.906Z"/><path fill="#000" d="M501.003 177.837C510.743 177.837 518.64 169.924 518.64 160.163C518.64 150.403 510.743 142.49 501.003 142.49C491.262 142.49 483.366 150.403 483.366 160.163C483.366 169.924 491.262 177.837 501.003 177.837Z" opacity=".1"/><path fill="#F7C4A7" d="M499.349 177.837C509.09 177.837 516.986 169.924 516.986 160.163C516.986 150.403 509.09 142.49 499.349 142.49C489.608 142.49 481.712 150.403 481.712 160.163C481.712 169.924 489.608 177.837 499.349 177.837Z"/><path fill="#575988" d="M516.711 177.561C516.711 177.561 537.655 184.74 537.655 199.652C537.655 214.564 526.08 238.312 525.529 257.642C524.978 276.972 494.664 274.211 494.664 274.211C494.664 274.211 490.255 209.041 494.664 204.07C499.074 199.1 518.915 179.77 516.711 177.561Z"/><path fill="#000" d="M512.852 208.488C512.852 208.488 505.136 242.73 486.948 236.655C486.948 236.655 477.578 250.462 484.192 256.537C484.192 256.537 500.176 260.403 510.648 249.91C521.12 239.417 528.836 235.551 530.489 222.848C532.143 210.145 533.245 192.472 527.734 194.129C522.222 195.786 512.852 208.488 512.852 208.488Z" opacity=".1"/><path fill="#575988" d="M513.404 207.936C513.404 207.936 505.687 242.178 487.499 236.103C487.499 236.103 478.129 249.91 484.743 255.985C484.743 255.985 500.727 259.852 511.199 249.358C521.671 238.865 529.387 234.998 531.041 222.296C532.694 209.593 533.796 191.92 528.285 193.577C522.773 195.234 513.404 207.936 513.404 207.936Z"/><path fill="#DDDBE2" d="M394.927 296.026C394.927 296.076 394.894 296.137 394.877 296.181C394.497 297.125 394.208 298.104 394.012 299.102C394.144 298.672 394.298 298.23 394.475 297.788C394.692 297.22 394.843 296.629 394.927 296.026Z"/><path fill="#DDDBE2" d="M351.964 297.412C349.693 296.667 348.74 295.441 348.701 294.148C347.764 295.949 348.354 297.97 351.562 299.02C358.203 301.196 386.891 304.239 392.347 304.802C392.458 304.814 392.57 304.802 392.677 304.767C392.783 304.733 392.881 304.677 392.964 304.603C393.048 304.529 393.115 304.438 393.161 304.336C393.208 304.234 393.233 304.124 393.235 304.012V304.012C393.239 303.809 393.167 303.613 393.033 303.46C392.899 303.308 392.714 303.211 392.513 303.189C386.527 302.549 358.517 299.555 351.964 297.412Z"/><path fill="#DDDBE2" d="M303.016 280.799C303.162 280.392 303.346 280 303.567 279.628C302.973 280.231 302.529 280.965 302.272 281.771C301.064 285.157 333.599 303.062 338.786 305.89C338.866 305.934 338.956 305.959 339.048 305.962C339.14 305.965 339.232 305.947 339.316 305.909C339.4 305.871 339.473 305.814 339.532 305.743C339.59 305.671 339.631 305.588 339.651 305.498V305.498C339.682 305.37 339.67 305.236 339.617 305.117C339.564 304.997 339.473 304.898 339.359 304.835C333.627 301.692 301.825 284.146 303.016 280.799Z"/><path fill="#DDDBE2" d="M342.512 299.566C342.22 299.644 341.933 300.036 341.663 300.571L341.751 300.538C341.994 300.472 342.407 299.986 342.909 299.268C342.801 299.397 342.665 299.499 342.512 299.566V299.566Z"/><path fill="#000" d="M496.902 175.721C495.348 179.156 495.023 183.028 493.882 186.629C491.616 193.77 485.934 199.679 479.127 201.96C484.854 204.247 491.611 201.452 496.037 196.813C500.462 192.174 503.058 185.999 505.544 179.99C511.971 184.32 511.188 194.272 513.349 202.021C514.276 205.392 515.914 208.525 518.154 211.207C520.393 213.889 523.181 216.058 526.328 217.568C529.466 218.979 532.876 219.674 536.314 219.604C539.752 219.535 543.131 218.701 546.209 217.165C540.317 209.985 531.928 200.083 532.926 190.495C533.736 182.73 528.175 176.798 528.555 169.005C529.106 157.96 524.884 152.348 516.981 145.257C512.362 141.109 519.632 135.261 513.674 136.973C511.331 137.646 508.862 135.134 506.564 135.962C502.011 137.619 497.04 136.978 492.355 138.083C468.005 143.816 499.173 170.706 496.902 175.721Z" opacity=".1"/><path fill="#FC6681" d="M497.453 175.169C495.899 178.604 495.574 182.476 494.433 186.077C492.168 193.218 486.485 199.127 479.678 201.408C485.405 203.695 492.162 200.9 496.588 196.261C501.014 191.622 503.61 185.447 506.095 179.438C512.522 183.768 511.739 193.721 513.9 201.469C514.827 204.84 516.465 207.973 518.705 210.655C520.944 213.337 523.732 215.506 526.879 217.016C530.017 218.427 533.427 219.122 536.865 219.052C540.303 218.983 543.682 218.149 546.76 216.613C540.868 209.433 533.03 201.187 534.028 191.6C534.838 183.835 533.631 175.854 534.028 168.067C534.579 157.021 529.172 146.351 521.263 139.259C516.644 135.112 509.43 134.582 507.126 135.393C502.573 137.05 497.602 136.41 492.917 137.514C468.556 143.264 499.724 170.154 497.453 175.169Z"/></g><defs><linearGradient id="paint0_linear" x1="326.864" x2="326.864" y1="255.168" y2="53.169" gradientUnits="userSpaceOnUse"><stop stop-color="gray" stop-opacity=".25"/><stop offset=".54" stop-color="gray" stop-opacity=".12"/><stop offset="1" stop-color="gray" stop-opacity=".1"/></linearGradient><linearGradient id="paint1_linear" x1="65970.4" x2="65970.4" y1="117328" y2="55724" gradientUnits="userSpaceOnUse"><stop stop-color="gray" stop-opacity=".25"/><stop offset=".54" stop-color="gray" stop-opacity=".12"/><stop offset="1" stop-color="gray" stop-opacity=".1"/></linearGradient><linearGradient id="paint2_linear" x1="26358" x2="26358" y1="95661.4" y2="58039" gradientUnits="userSpaceOnUse"><stop stop-color="gray" stop-opacity=".25"/><stop offset=".54" stop-color="gray" stop-opacity=".12"/><stop offset="1" stop-color="gray" stop-opacity=".1"/></linearGradient><linearGradient id="paint3_linear" x1="213219" x2="213219" y1="123742" y2="67852.4" gradientUnits="userSpaceOnUse"><stop stop-color="gray" stop-opacity=".25"/><stop offset=".54" stop-color="gray" stop-opacity=".12"/><stop offset="1" stop-color="gray" stop-opacity=".1"/></linearGradient><clipPath id="clip0"><rect width="571" height="338" fill="#fff"/></clipPath></defs></svg>