<svg xmlns="http://www.w3.org/2000/svg" width="338" height="338" fill="none" viewBox="0 0 338 338"><g clip-path="url(#clip0)"><path fill="#F2F2F2" d="M330.008 125.527C311.881 53.8666 249.245 2.13794 175.725 0.063146C136.858 -1.03373 95.9578 11.9257 66.1797 57.2756C12.9482 138.343 69.4509 194.364 108.843 220.983C127.874 233.87 145.023 249.365 159.791 267.019C186.399 298.763 237.587 338.208 298.55 276.403C342.736 231.607 342.082 173.26 330.008 125.527Z"/><path fill="#3F3D56" d="M164.155 338C254.815 338 328.309 328.67 328.309 317.161C328.309 305.652 254.815 296.322 164.155 296.322C73.4945 296.322 0 305.652 0 317.161C0 328.67 73.4945 338 164.155 338Z"/><path fill="#000" d="M164.155 327.896C244.638 327.896 309.884 321.352 309.884 313.278C309.884 305.205 244.638 298.661 164.155 298.661C83.6706 298.661 18.4255 305.205 18.4255 313.278C18.4255 321.352 83.6706 327.896 164.155 327.896Z" opacity=".1"/><path fill="#3F3D56" d="M92.2047 189.636H83.6494V320.369H92.2047V189.636Z"/><path fill="#3F3D56" d="M159.791 186.196V189.636L20.3406 191.356V187.916L20.5374 187.787L45.1509 171.574H148.669L159.791 186.196Z"/><path fill="#FFB9B9" d="M134.981 165.554C134.981 165.554 104.182 168.134 114.448 175.875C124.715 183.616 134.981 170.714 134.981 170.714V165.554Z"/><path fill="#000" d="M159.791 186.299V189.636L20.3406 191.356V187.916L20.5374 187.787L159.791 186.299Z" opacity=".1"/><path fill="#575A89" d="M181.179 123.409L181.928 120.585C181.928 120.585 171.768 138.891 170.913 140.611C170.057 142.331 155.513 156.952 153.802 159.533C152.636 161.205 151.188 162.66 149.525 163.833H133.27C133.27 163.833 129.848 175.014 134.981 175.874C140.114 176.734 156.369 180.175 159.791 180.175C163.213 180.175 184.601 160.393 184.601 160.393L181.179 123.409Z"/><path fill="#3F3D56" d="M184.601 248.122L179.468 320.369H184.601L190.59 246.402L184.601 248.122Z"/><path fill="#3F3D56" d="M247.055 239.521L241.921 311.768H247.055L253.043 237.801L247.055 239.521Z"/><path fill="#3F3D56" d="M256.465 248.122L251.332 320.369H256.465L262.454 246.402L256.465 248.122Z"/><path fill="#3F3D56" d="M176.901 241.241L171.768 313.488H176.901L182.89 239.521L176.901 241.241Z"/><path fill="#3F3D56" d="M276.143 149.212L261.599 254.143L175.191 250.702L175.772 241.018L176.902 222.319L243.633 225.76L254.755 149.212H276.143Z"/><path fill="#000" d="M276.143 149.212L261.599 254.143L175.191 250.702L175.772 241.018C193.807 241.714 254.755 237.801 254.755 237.801C254.755 224.074 266.749 170.336 271.591 149.212L276.143 149.212Z" opacity=".1"/><path fill="#FFB9B9" d="M124.715 276.505C124.715 276.505 122.148 296.287 117.015 299.727C111.882 303.168 138.403 307.468 138.403 307.468L140.114 281.665L124.715 276.505Z"/><path fill="#FFB9B9" d="M211.123 285.105C211.123 285.105 215.4 290.266 216.256 293.706C217.111 297.147 229.944 298.867 229.944 298.867L239.355 288.546C239.355 288.546 227.378 278.225 223.956 278.225C220.534 278.225 211.123 285.105 211.123 285.105Z"/><path fill="#FFB9B9" d="M188.451 107.498C199.791 107.498 208.984 98.2558 208.984 86.8555C208.984 75.4552 199.791 66.2134 188.451 66.2134C177.111 66.2134 167.919 75.4552 167.919 86.8555C167.919 98.2558 177.111 107.498 188.451 107.498Z"/><path fill="#FFB9B9" d="M182.89 101.047C182.89 101.047 193.157 120.829 191.446 124.269C189.735 127.71 213.689 107.928 213.689 107.928C213.689 107.928 205.134 94.1664 205.134 89.866C205.134 85.5656 182.89 101.047 182.89 101.047Z"/><path fill="#2F2E41" d="M192.301 202.537C192.301 202.537 126.426 192.216 123.859 216.299C121.293 240.381 111.882 271.344 111.026 273.924C110.171 276.505 139.259 291.126 142.681 285.966C146.103 280.805 152.092 239.521 150.38 236.081C148.669 232.64 147.814 228.34 151.236 229.2C154.658 230.06 192.301 237.801 200.001 235.221C207.701 232.64 227.378 198.237 227.378 198.237L192.301 202.537Z"/><path fill="#000" d="M192.301 202.537C192.301 202.537 126.426 192.216 123.859 216.299C121.293 240.381 111.882 271.344 111.026 273.924C110.171 276.505 139.259 291.126 142.681 285.966C146.103 280.805 152.092 239.521 150.38 236.081C148.669 232.64 147.814 228.34 151.236 229.2C154.658 230.06 192.301 237.801 200.001 235.221C207.701 232.64 227.378 198.237 227.378 198.237L192.301 202.537Z" opacity=".1"/><path fill="#2F2E41" d="M190.59 197.377L193.157 218.879C193.157 218.879 152.091 234.361 167.491 259.303C182.89 284.246 200.001 298.007 200.001 298.007C200.001 298.007 227.378 282.526 227.378 278.225C227.378 273.925 194.012 249.842 198.29 249.842C202.567 249.842 264.165 246.402 251.332 211.998C238.5 177.595 190.59 197.377 190.59 197.377Z"/><path fill="#2F2E41" d="M123.859 300.587C123.859 300.587 117.015 292.846 117.015 294.566C117.015 296.287 97.3378 306.608 93.9157 307.468C90.4936 308.328 85.3604 310.048 92.2046 312.628C99.0488 315.208 142.681 316.069 142.681 314.348C142.681 312.628 144.392 296.286 140.97 298.007C137.547 299.727 124.715 304.027 123.859 300.587Z"/><path fill="#2F2E41" d="M224.811 294.567C224.811 294.567 215.4 291.987 214.545 294.567C213.689 297.147 212.834 307.468 205.134 310.908C197.434 314.349 194.868 319.509 205.134 320.369C215.4 321.23 243.633 301.448 243.633 298.007C243.633 294.567 240.211 284.246 238.5 285.106C236.789 285.966 232.511 293.707 224.811 294.567Z"/><path fill="#3F3D56" d="M107.604 305.748H68.25V321.229H107.604V305.748Z"/><path fill="#575A89" d="M213.689 102.767C213.689 102.767 210.487 94.1583 204.816 99.3229C199.145 104.488 188.024 117.389 188.024 117.389C188.024 117.389 181.179 119.969 178.613 124.27C176.046 128.57 176.046 156.953 181.179 166.414C186.313 175.875 186.313 192.216 188.024 196.517C189.735 200.817 188.024 205.118 194.012 205.118C200.001 205.118 190.59 198.237 210.267 205.118C229.944 211.998 252.188 220.599 253.899 214.579C255.61 208.558 251.333 205.118 253.899 202.538C256.466 199.957 253.899 199.097 252.188 193.077C250.477 187.056 248.766 186.196 247.91 178.455C247.055 170.714 247.91 162.973 246.199 159.533C244.488 156.093 244.488 150.932 244.488 142.331C244.488 133.731 239.355 116.529 229.944 111.368C220.534 106.208 213.689 102.767 213.689 102.767Z"/><path fill="#2F2E41" d="M168.403 63.902C173.172 59.2219 178.184 54.3911 184.533 52.3527C193.006 49.632 202.453 52.4869 209.748 57.6041C211.321 58.708 212.863 59.9579 213.808 61.6365C214.676 63.1763 214.979 64.9634 215.254 66.7113C216.223 72.8665 217.016 79.104 216.543 85.3176C216.069 91.5312 214.247 97.7766 210.441 102.695C207.066 99.0705 204.476 94.7813 202.835 90.0989C202.402 88.8597 202.013 87.5541 201.138 86.5789C200.262 85.6038 198.722 85.0791 197.623 85.79C196.097 86.7777 196.289 89.4155 194.677 90.2553C194.125 90.5069 193.507 90.572 192.916 90.441C188.714 89.7131 187.251 84.5381 184.516 81.2496C180.486 76.4026 174.843 76.7093 169.335 75.3163C162.944 73.6998 164.527 67.7063 168.403 63.902Z"/><path fill="#6A42F4" d="M133.657 180.456C143.37 180.456 151.243 178.735 151.243 176.612C151.243 174.489 143.37 172.769 133.657 172.769C123.944 172.769 116.071 174.489 116.071 176.612C116.071 178.735 123.944 180.456 133.657 180.456Z"/><path stroke="#6A42F4" stroke-miterlimit="10" stroke-width="6" d="M132.213 177.043L131.869 158.742C131.792 154.648 131.938 150.008 134.965 147.269C136.878 145.538 139.755 144.794 140.955 142.506C141.609 141.259 141.621 139.785 141.618 138.375L141.57 113.465"/><path fill="#6A42F4" d="M141.776 105.636H140.321C138.47 105.636 136.97 107.144 136.97 109.004V118.154C136.97 120.014 138.47 121.522 140.321 121.522H141.776C143.626 121.522 145.126 120.014 145.126 118.154V109.004C145.126 107.144 143.626 105.636 141.776 105.636Z"/><path fill="#FFB9B9" d="M164.54 173.008C164.54 173.008 136.184 165.447 133.871 171.951C131.559 178.455 158.08 184.476 158.08 184.476H169.202L164.54 173.008Z"/><path fill="#575A89" d="M223.956 116.528C223.956 116.528 211.123 125.989 207.701 139.751C204.278 153.512 201.712 168.134 201.712 168.134L162.358 173.294C162.358 173.294 158.936 187.055 164.069 187.916C169.202 188.776 207.701 191.356 213.689 187.916C219.678 184.475 240.211 141.471 239.355 137.17C238.499 132.87 236.788 117.388 223.956 116.528Z"/><path fill="#D1D9EC" d="M70.5848 177.684L84.486 178.806L104.308 177.512L103.963 177.479L85.6015 175.7C81.3968 174.147 84.3144 165.003 84.3144 165.003L70.245 165.722L69.126 165.779C64.149 177.512 70.5848 177.684 70.5848 177.684Z"/><path fill="#000" d="M70.5848 177.684L84.486 178.805L104.308 177.511L103.963 177.479L83.9282 178.202L70.499 176.735C66.689 175.727 68.8703 169.076 70.245 165.722L69.126 165.779C64.149 177.511 70.5848 177.684 70.5848 177.684Z" opacity=".1"/><path fill="#4C4C56" d="M47.5445 94.1754L51.7079 154.866V162.191C51.8349 164.032 52.7056 167.237 54.5419 167.225L57.9529 164.284H119.363C120.42 164.277 116.865 162.725 116.761 161.668L121.067 159.407L116.56 114.905C116.489 114.202 116.219 113.535 115.783 112.98C115.347 112.426 114.763 112.009 114.099 111.777L53.09 90.5382C51.0134 89.8153 48.9007 90.0724 47.5793 91.1766C46.6731 91.9341 47.4398 92.664 47.5445 94.1754Z"/><path fill="#DFE6F5" d="M50.4932 155.926L51.0509 163.973C51.1119 164.86 51.507 165.69 52.1555 166.294C52.8041 166.898 53.6574 167.231 54.5417 167.225L55.8323 167.216L119.843 166.827C120.093 166.825 120.34 166.771 120.567 166.668C120.795 166.565 120.999 166.415 121.166 166.228C121.333 166.042 121.46 165.822 121.537 165.583C121.615 165.345 121.642 165.092 121.618 164.842L121.067 159.408L50.4932 155.926Z"/><path fill="#fff" d="M93.4103 164.313C93.8843 164.313 94.2684 163.54 94.2684 162.587C94.2684 161.634 93.8843 160.862 93.4103 160.862C92.9364 160.862 92.5522 161.634 92.5522 162.587C92.5522 163.54 92.9364 164.313 93.4103 164.313Z"/><path fill="#D1D9EC" d="M62.0729 179.703C62.0729 179.703 44.5676 173.06 39.8481 177.891C39.8481 177.891 39.0758 179.358 42.2508 179.703L55.0799 180.738C55.0799 180.738 60.3567 181.255 62.0729 179.703Z"/><path fill="#DFE6F5" d="M61.6057 177.974C58.1669 176.562 47.8152 172.907 41.1924 176.951C41.1924 176.951 48.5209 176.135 52.548 178.475C56.575 180.815 62.0729 179.702 62.0729 179.702L62.1551 179.555C62.2323 179.417 62.2794 179.264 62.2932 179.106C62.3071 178.949 62.2873 178.79 62.2354 178.64C62.1834 178.491 62.1004 178.354 61.9918 178.239C61.8832 178.124 61.7516 178.034 61.6057 177.974V177.974Z"/><path fill="#DFE6F5" d="M46.2439 94.6016L51.051 163.973C51.112 164.859 51.507 165.69 52.1556 166.294C52.8042 166.898 53.6575 167.231 54.5417 167.225L55.8323 167.216C54.9473 166.365 54.1931 165.387 53.5944 164.312C53.5944 164.312 48.8748 94.6085 48.5316 92.8831C48.3812 92.2351 48.0509 91.6434 47.5791 91.1768C47.094 91.5936 46.7184 92.124 46.4855 92.7213C46.2527 93.3186 46.1697 93.9644 46.2439 94.6016V94.6016Z"/><path fill="#000" d="M46.2439 94.6016L51.051 163.973C51.112 164.859 51.507 165.69 52.1556 166.294C52.8042 166.898 53.6575 167.231 54.5417 167.225L55.8323 167.216C54.9473 166.365 54.1931 165.387 53.5944 164.312C53.5944 164.312 48.8748 94.6085 48.5316 92.8831C48.3812 92.2351 48.0509 91.6434 47.5791 91.1768C47.094 91.5936 46.7184 92.124 46.4855 92.7213C46.2527 93.3186 46.1697 93.9644 46.2439 94.6016V94.6016Z" opacity=".1"/><path stroke="#F2F2F2" stroke-miterlimit="10" stroke-width="2" d="M73.2703 128.039C70.8437 129.602 68.2688 130.919 65.5835 131.971C63.8481 132.651 61.9389 133.223 60.1474 132.711C58.3559 132.199 56.8862 130.18 57.6011 128.451C57.8404 127.949 58.2067 127.519 58.6633 127.204C59.12 126.89 59.651 126.701 60.2029 126.658C61.312 126.587 62.417 126.85 63.3767 127.413C65.1407 128.369 66.55 129.872 67.394 131.699C67.8238 132.636 68.1319 133.694 68.9259 134.348C69.5726 134.799 70.3159 135.089 71.0953 135.197C72.9166 135.594 74.7863 135.993 76.6297 135.718C78.4732 135.442 80.3137 134.343 80.935 132.576"/><path stroke="#F2F2F2" stroke-miterlimit="10" stroke-width="2" d="M87.9588 120.677C87.6077 126.236 87.0368 131.775 86.2461 137.294L90.2268 136.902C91.6942 136.758 93.3731 136.487 94.1429 135.223C94.8606 134.045 94.4206 132.436 93.491 131.418C92.5614 130.4 91.2521 129.836 89.9847 129.302L87.9085 128.426"/><path stroke="#F2F2F2" stroke-miterlimit="10" stroke-width="2" d="M108.514 128.69C107.102 128.362 105.661 128.04 104.218 128.168C102.775 128.297 101.304 128.948 100.534 130.182C99.1124 132.46 100.704 135.567 102.939 137.046C104.801 138.268 107.023 138.812 109.235 138.586"/></g><defs><clipPath id="clip0"><rect width="337.056" height="338" fill="#fff"/></clipPath></defs></svg>