<svg xmlns="http://www.w3.org/2000/svg" width="501" height="338" fill="none" viewBox="0 0 501 338"><g clip-path="url(#clip0)"><path fill="#6A42F4" d="M292.026 67.4128C262.552 66.3507 234.481 56.7045 207.694 46.1718C180.907 35.639 154.338 23.9195 125.57 18.3276C107.067 14.7304 85.9037 14.2225 70.9982 24.2797C56.6483 33.9767 52.0122 50.6693 49.5211 66.1753C47.6448 77.8394 46.5427 90.113 51.6798 101.034C55.2502 108.616 61.5804 114.988 65.9614 122.252C81.2039 147.519 70.4289 178.679 53.9158 203.351C46.1739 214.927 37.1795 225.977 31.2 238.288C25.2205 250.598 22.4562 264.723 27.6888 277.293C32.8714 289.76 45.2266 299.106 58.6111 305.686C85.7944 319.05 117.814 322.878 149.06 325.043C218.205 329.841 287.714 327.763 357.041 325.685C382.698 324.914 408.465 324.134 433.704 320.112C447.722 317.877 462.19 314.33 472.368 305.774C485.284 294.909 488.485 276.508 479.828 262.886C465.31 240.033 425.179 234.358 415.019 209.829C409.435 196.332 415.169 181.292 423.289 168.774C440.704 141.918 469.891 118.354 471.426 87.6518C472.482 66.5678 458.451 45.4514 436.755 35.4728C414.017 25.0139 382.48 26.3299 365.712 43.6413C348.415 61.4468 318.053 68.304 292.026 67.4128Z" opacity=".1"/><path fill="#6A42F4" d="M77.9933 338C96.4068 338 111.334 335.089 111.334 331.499C111.334 327.908 96.4068 324.997 77.9933 324.997C59.5799 324.997 44.6528 327.908 44.6528 331.499C44.6528 335.089 59.5799 338 77.9933 338Z"/><path fill="#3F3D56" d="M77.4333 333.89C79.5762 333.89 81.3134 331.583 81.3134 328.737C81.3134 325.891 79.5762 323.584 77.4333 323.584C75.2904 323.584 73.5532 325.891 73.5532 328.737C73.5532 331.583 75.2904 333.89 77.4333 333.89Z"/><path fill="#3F3D56" d="M77.4333 327.592C79.5762 327.592 81.3134 325.284 81.3134 322.438C81.3134 319.592 79.5762 317.285 77.4333 317.285C75.2904 317.285 73.5532 319.592 73.5532 322.438C73.5532 325.284 75.2904 327.592 77.4333 327.592Z"/><path fill="#3F3D56" d="M77.4333 321.293C79.5762 321.293 81.3134 318.986 81.3134 316.14C81.3134 313.294 79.5762 310.987 77.4333 310.987C75.2904 310.987 73.5532 313.294 73.5532 316.14C73.5532 318.986 75.2904 321.293 77.4333 321.293Z"/><path fill="#3F3D56" d="M77.4333 315C79.5762 315 81.3134 312.693 81.3134 309.847C81.3134 307.001 79.5762 304.693 77.4333 304.693C75.2904 304.693 73.5532 307.001 73.5532 309.847C73.5532 312.693 75.2904 315 77.4333 315Z"/><path fill="#3F3D56" d="M77.4333 308.701C79.5762 308.701 81.3134 306.394 81.3134 303.548C81.3134 300.702 79.5762 298.395 77.4333 298.395C75.2904 298.395 73.5532 300.702 73.5532 303.548C73.5532 306.394 75.2904 308.701 77.4333 308.701Z"/><path fill="#3F3D56" d="M77.4333 302.403C79.5762 302.403 81.3134 300.096 81.3134 297.249C81.3134 294.403 79.5762 292.096 77.4333 292.096C75.2904 292.096 73.5532 294.403 73.5532 297.249C73.5532 300.096 75.2904 302.403 77.4333 302.403Z"/><path fill="#3F3D56" d="M77.4333 296.104C79.5762 296.104 81.3134 293.797 81.3134 290.951C81.3134 288.105 79.5762 285.798 77.4333 285.798C75.2904 285.798 73.5532 288.105 73.5532 290.951C73.5532 293.797 75.2904 296.104 77.4333 296.104Z"/><path fill="#6A42F4" d="M91.9654 247.855C92.4971 247.171 92.981 246.451 93.4136 245.699L83.2124 243.999L94.2424 244.083C95.3014 241.748 95.8791 239.219 95.9402 236.651C96.0013 234.082 95.5444 231.528 94.5976 229.145L79.8014 236.93L93.4637 226.771C92.1839 224.533 90.4635 222.586 88.4096 221.051C86.3558 219.516 84.0124 218.427 81.5252 217.849C79.0381 217.272 76.4604 217.221 73.9527 217.697C71.4449 218.174 69.0607 219.168 66.9484 220.619C64.8361 222.07 63.0409 223.947 61.6745 226.131C60.3082 228.316 59.3999 230.763 59.0061 233.319C58.6124 235.875 58.7417 238.486 59.3859 240.989C60.0302 243.492 61.1756 245.834 62.7509 247.869C61.9245 248.936 61.2131 250.089 60.6287 251.309L73.872 258.282L59.7543 253.479C58.7611 256.45 58.515 259.625 59.0383 262.717C59.5616 265.808 60.8377 268.718 62.7509 271.183C60.5932 273.964 59.2509 277.305 58.8774 280.823C58.5039 284.341 59.1143 287.894 60.6388 291.077C62.1633 294.26 64.5404 296.943 67.4982 298.821C70.4561 300.699 73.8753 301.694 77.365 301.694C80.8546 301.694 84.2738 300.699 87.2317 298.821C90.1895 296.943 92.5666 294.26 94.0911 291.077C95.6156 287.894 96.226 284.341 95.8525 280.823C95.479 277.305 94.1367 273.964 91.979 271.183C94.5574 267.86 95.9592 263.754 95.9592 259.526C95.9592 255.298 94.5574 251.192 91.979 247.869L91.9654 247.855Z"/><path fill="#000" d="M58.7752 259.505C58.7697 263.734 60.1721 267.841 62.7554 271.16C60.5978 273.941 59.2555 277.282 58.882 280.8C58.5085 284.318 59.1189 287.871 60.6434 291.054C62.1679 294.237 64.5449 296.92 67.5028 298.798C70.4606 300.676 73.8799 301.671 77.3695 301.671C80.8592 301.671 84.2784 300.676 87.2362 298.798C90.1941 296.92 92.5711 294.237 94.0956 291.054C95.6201 287.871 96.2306 284.318 95.8571 280.8C95.4836 277.282 94.1412 273.941 91.9836 271.16C94.461 267.96 58.7752 257.395 58.7752 259.505Z" opacity=".1"/><path fill="#3F3D56" d="M239.522 253.041C239.805 256.735 241.207 260.558 244.159 262.738C247.11 264.917 251.805 264.876 254.059 261.948C254.816 260.849 255.373 259.621 255.703 258.323C257.602 252.237 258.95 245.579 256.869 239.553C252.174 239.243 246.732 237.004 243.207 240.938C240.36 244.142 239.195 248.769 239.522 253.041Z"/><path fill="#FABDBD" d="M261.318 215.809C260.694 221.179 259.633 226.526 259.743 231.933C259.784 234.02 260.002 236.089 260.007 238.186C260.015 243.629 258.6 248.977 255.908 253.687C255.624 254.241 255.245 254.738 254.788 255.155C253.708 256.042 252.083 255.968 250.871 255.289C249.688 254.543 248.726 253.485 248.089 252.228C244.696 246.336 244.6 239.174 243.257 232.492C242.228 227.38 240.424 222.426 239.773 217.254C239.349 213.925 239.413 210.531 238.739 207.243C238.534 206.25 237.96 204.759 237.582 203.295C237.236 201.988 237.045 200.704 237.4 199.822C238.124 198.017 240.497 198.719 242.041 198.83C247.478 199.238 252.937 199.224 258.372 198.788C258.909 198.746 259.519 198.723 259.897 199.111C260.062 199.307 260.186 199.535 260.262 199.781C260.694 200.981 261.025 202.217 261.25 203.475C262.001 207.497 261.792 211.713 261.318 215.809Z"/><g opacity=".1"><path fill="#000" d="M259.223 198.789C258.943 198.759 258.661 198.759 258.381 198.789C255.776 199.001 253.166 199.107 250.562 199.121C253.449 199.127 256.336 199.016 259.223 198.789Z" opacity=".1"/><path fill="#000" d="M251.791 255.289C250.608 254.543 249.646 253.485 249.008 252.228C245.616 246.336 245.52 239.174 244.177 232.492C243.147 227.381 241.344 222.426 240.693 217.254C240.269 213.925 240.333 210.531 239.659 207.243C239.454 206.25 238.88 204.759 238.502 203.295C238.156 201.988 237.965 200.705 238.32 199.823C238.471 199.461 238.725 199.153 239.05 198.94C239.374 198.726 239.755 198.615 240.142 198.622C238.989 198.544 237.865 198.682 237.409 199.823C237.054 200.705 237.245 201.988 237.591 203.295C237.969 204.759 238.543 206.25 238.748 207.243C239.422 210.531 239.358 213.925 239.782 217.254C240.433 222.43 242.237 227.385 243.266 232.492C244.609 239.174 244.705 246.345 248.098 252.228C248.735 253.485 249.697 254.543 250.88 255.289C251.607 255.697 252.44 255.868 253.267 255.779C252.749 255.71 252.249 255.544 251.791 255.289V255.289Z" opacity=".1"/></g><path fill="#FABDBD" d="M278.537 244.128C275.805 249.67 276.26 257.519 276.26 257.519C276.716 275.99 269.429 314.778 269.429 314.778H263.054C263.054 314.778 262.143 271.834 263.054 268.14C263.964 264.446 262.598 251.517 261.232 233.508C260.216 220.117 262.981 207.982 264.465 202.658C264.975 200.811 265.331 199.799 265.331 199.799C265.331 199.799 275.805 184.099 281.725 191.488C283.091 193.205 283.816 196.673 284.066 201.051C284.877 215.495 280.632 239.876 278.537 244.128Z"/><path fill="#000" d="M284.066 201.051C283.815 196.673 283.1 193.201 281.725 191.488C280.404 189.844 278.856 189.345 277.253 189.562C278.495 189.771 279.609 190.462 280.359 191.488C281.725 193.205 282.449 196.673 282.7 201.051C283.51 215.495 279.266 239.876 277.171 244.128C274.438 249.67 274.894 257.52 274.894 257.52C275.349 275.99 268.063 314.778 268.063 314.778H269.429C269.429 314.778 276.716 275.99 276.26 257.52C276.26 257.52 275.805 249.67 278.537 244.128C280.632 239.876 284.876 215.495 284.066 201.051Z" opacity=".1"/><path fill="#3F3D56" d="M259.738 313.093C259.229 313.498 258.789 313.984 258.436 314.534C257.62 316.094 258.777 317.96 260.016 319.202C261.255 320.444 262.748 321.774 262.748 323.542C262.748 324.965 261.687 326.184 260.499 326.941C259.861 327.347 259.06 327.865 259.192 328.631C259.238 328.825 259.32 329.008 259.433 329.171C260.453 330.755 262.261 331.683 264.092 332.034C265.923 332.385 267.813 332.233 269.675 332.08C269.954 332.091 270.227 331.995 270.44 331.813C270.575 331.629 270.647 331.405 270.645 331.175C270.736 330.196 270.677 329.162 271.101 328.28C271.693 327.075 273.054 326.461 273.833 325.38C274.926 323.903 274.776 321.848 274.361 320.052C273.451 316.14 271.424 311.68 268.382 308.969C264.857 305.857 262.093 310.844 259.738 313.093Z"/><path fill="#3F3D56" d="M273.537 80.342C276.078 76.491 275.418 71.1068 272.822 67.2742C270.226 63.4416 266.055 61.0312 261.751 59.4751C255.949 57.3787 249.551 56.6629 243.589 58.2375C238.844 59.4889 234.581 62.1071 230.109 64.1296C222.197 67.709 213.595 69.4446 204.934 69.209C195.32 68.9365 184.787 66.4384 176.722 71.7671C161.957 81.5057 168.524 108.011 154.557 118.867C150.791 121.794 146.05 123.073 141.86 125.331C137.67 127.589 133.699 131.519 133.799 136.331C133.845 138.639 134.847 140.842 136.076 142.795C141.313 151.213 151.105 156.422 160.91 156.325C170.715 156.228 180.283 150.941 185.934 142.804C187.351 140.768 188.599 138.501 190.652 137.143C194.751 134.419 200.152 136.326 205.043 136.732C215.932 137.633 226.826 129.344 228.993 118.47C229.904 113.829 229.745 108.283 233.429 105.37C236.403 103.019 240.588 103.522 244.359 103.121C251.254 102.396 256.696 98.0414 260.439 92.3525C262.156 89.7435 262.357 86.6266 264.697 84.5718C267.22 82.3138 271.123 83.9807 273.537 80.342Z"/><g opacity=".1"><path fill="#000" d="M195.826 70.1C199.819 70.2111 203.813 69.9016 207.744 69.1765C206.66 69.2088 205.567 69.2088 204.479 69.1765C196.932 68.9641 188.822 67.3848 181.781 69.2873C186.426 69.3335 191.231 69.9707 195.826 70.1Z" opacity=".1"/><path fill="#000" d="M181.535 138.062C179.481 139.419 178.233 141.687 176.817 143.723C172.464 149.919 166.101 154.366 158.842 156.287C159.375 156.311 159.908 156.324 160.445 156.32C170.259 156.223 179.818 150.936 185.47 142.799C186.886 140.763 188.134 138.496 190.188 137.138L190.543 136.917C187.328 136.469 184.172 136.312 181.535 138.062Z" opacity=".1"/><path fill="#000" d="M272.362 67.26C269.771 63.4459 265.594 61.017 261.291 59.4609C255.489 57.3645 249.09 56.6488 243.129 58.2234C242.993 58.2557 242.86 58.2973 242.728 58.3342C246.112 58.5255 249.451 59.2162 252.638 60.3844C256.942 61.9405 261.118 64.3694 263.709 68.1836C266.3 71.9977 266.965 77.4188 264.424 81.2514C262.01 84.9039 258.108 83.237 255.553 85.4858C253.212 87.5406 253.012 90.6575 251.295 93.2664C248.075 98.1472 243.594 102.04 238.015 103.518C239.932 103.287 241.954 103.314 243.867 103.111C250.762 102.386 256.204 98.0318 259.947 92.3429C261.664 89.734 261.865 86.6171 264.205 84.5622C266.76 82.3135 270.663 83.9804 273.077 80.3279C275.623 76.4768 274.962 71.0742 272.362 67.26Z" opacity=".1"/><path fill="#000" d="M235.219 104.034C231.471 104.432 227.285 103.933 224.289 106.283C220.605 109.197 220.782 114.743 219.853 119.383C218.255 127.496 211.761 134.187 204.051 136.676L204.592 136.727C215.481 137.628 226.375 129.339 228.542 118.464C229.453 113.824 229.294 108.278 232.978 105.364C233.824 104.723 234.784 104.252 235.806 103.979C235.601 103.984 235.415 104.016 235.219 104.034Z" opacity=".1"/></g><path fill="#FABDBD" d="M345.255 63.8107C345.255 63.8107 334.325 85.9753 330.682 94.287C327.038 102.599 293.794 115.066 289.239 115.528C288.018 115.698 286.88 116.254 285.988 117.116C283.415 119.425 281.953 123.378 281.953 123.378C281.953 123.378 283.775 135.845 281.498 156.625C281.452 157.026 281.411 157.428 281.375 157.816C279.389 177.589 283.547 182.252 283.547 182.252C283.547 182.252 239.372 199.338 240.738 177.173C241.167 170.196 241.103 165.098 240.679 160.836C240.216 156.473 239.34 152.165 238.065 147.971C236.986 144.143 235.697 139.946 234.363 134.229C233.72 131.377 232.874 128.576 231.831 125.848C231.799 125.765 231.767 125.682 231.74 125.604C229.462 119.873 227.185 118.021 225.883 117.421C224.653 116.879 223.481 116.21 222.385 115.426C218.177 112.346 209.147 105.443 201.104 97.2884C190.174 86.2062 179.245 59.8858 179.245 59.8858C179.245 59.8858 176.057 44.6477 183.343 32.1801C190.63 19.7125 187.442 56.6534 187.442 56.6534C187.442 56.6534 200.649 74.6621 203.837 82.9738C205.476 87.2497 208.081 89.4385 210.212 90.5744C213.734 92.433 217.105 94.5698 220.295 96.9652C222.451 98.6173 224.717 100.117 227.076 101.454C232.168 104.224 238.266 107.35 243.348 108.172C244.141 108.305 244.944 108.375 245.748 108.38C246.129 108.392 246.509 108.315 246.856 108.155C247.204 107.995 247.51 107.756 247.752 107.456C249.118 105.826 249.086 102.317 248.772 99.431C248.604 97.9359 248.355 96.4514 248.025 94.9842C248.025 94.9842 262.826 85.5181 262.37 97.0622C262.3 98.3378 262.416 99.617 262.716 100.858C262.959 101.997 263.495 103.05 264.27 103.91C265.046 104.77 266.032 105.406 267.129 105.753C268.907 106.281 270.787 106.343 272.594 105.933C273.158 105.835 273.702 105.646 274.206 105.374C275.573 104.45 289.235 100.294 293.334 99.8327C297.432 99.371 317.926 89.2122 317.926 89.2122L340.241 57.8125C340.241 57.8125 339.785 39.342 348.894 31.9538C358.002 24.5657 345.255 63.8107 345.255 63.8107Z"/><g opacity=".1"><path fill="#000" d="M281.374 155.046C280.976 158.757 280.802 162.488 280.851 166.221C280.896 163.783 281.055 160.998 281.374 157.817C281.411 157.429 281.452 157.027 281.497 156.625C282.294 149.514 282.674 142.361 282.636 135.204C282.566 141.436 282.186 147.661 281.497 153.855C281.47 154.256 281.411 154.658 281.374 155.046Z" opacity=".1"/><path fill="#000" d="M248.498 94.689C248.193 94.8691 248.043 94.9799 248.043 94.9799C248.486 96.9552 248.778 98.9621 248.917 100.983C249.009 98.8756 248.869 96.7645 248.498 94.689V94.689Z" opacity=".1"/><path fill="#000" d="M187.656 54.1465C187.879 50.9142 188.211 45.1191 188.147 39.9658C188.07 46.8553 187.464 53.8833 187.464 53.8833L187.656 54.1465Z" opacity=".1"/><path fill="#000" d="M240.77 176.633C240.77 176.813 240.77 176.993 240.738 177.173C239.372 199.338 283.547 182.252 283.547 182.252C283.03 181.545 282.64 180.751 282.394 179.907C275.741 182.308 242.305 193.473 240.77 176.633Z" opacity=".1"/><path fill="#000" d="M345.254 61.0403C345.254 61.0403 334.325 83.2049 330.681 91.5166C327.038 99.8283 293.793 112.296 289.239 112.758C288.018 112.927 286.88 113.483 285.988 114.346C283.414 116.655 281.953 120.608 281.953 120.608C281.953 120.608 282.062 121.36 282.194 122.792C282.704 121.605 284.016 118.881 285.988 117.117C286.88 116.254 288.018 115.698 289.239 115.528C293.793 115.066 327.038 102.599 330.681 94.2872C334.325 85.9755 345.254 63.8109 345.254 63.8109C345.254 63.8109 352.955 40.0995 352.108 33.0068C351.407 42.0943 345.254 61.0403 345.254 61.0403Z" opacity=".1"/><path fill="#000" d="M240.679 158.066C240.215 153.702 239.34 149.394 238.065 145.201C236.986 141.373 235.697 137.175 234.362 131.459C233.72 128.607 232.874 125.806 231.83 123.078C231.798 122.995 231.767 122.912 231.739 122.833C229.462 117.103 227.185 115.251 225.883 114.651C224.653 114.108 223.481 113.44 222.385 112.656C218.177 109.576 209.146 102.673 201.104 94.518C190.174 83.4357 179.244 57.1153 179.244 57.1153C178.84 54.8933 178.615 52.6418 178.57 50.3828C178.459 53.5658 178.685 56.7517 179.244 59.8859C179.244 59.8859 190.174 86.2063 201.104 97.2885C209.146 105.443 218.177 112.347 222.385 115.427C223.49 116.212 224.671 116.881 225.91 117.421C227.208 118.022 229.48 119.873 231.767 125.604C231.794 125.682 231.826 125.765 231.858 125.848C232.897 128.576 233.738 131.378 234.376 134.229C235.71 139.946 236.999 144.143 238.079 147.971C239.354 152.165 240.229 156.473 240.693 160.836C240.884 162.766 240.998 164.867 241.03 167.232C241.085 164.172 240.968 161.112 240.679 158.066Z" opacity=".1"/></g><path fill="#6A42F4" d="M285.783 138.007C285.088 139.172 284.479 140.388 283.961 141.645C283.273 143.585 283.269 145.695 283.141 147.75C282.96 150.633 282.527 153.495 281.848 156.302C281.738 156.818 281.586 157.325 281.393 157.816C281.257 158.147 281.077 158.457 280.86 158.74C280.617 159.041 280.332 159.304 280.013 159.52C279.524 159.851 279.007 160.136 278.469 160.374C272.13 163.376 265.216 166.026 258.299 164.992C255.374 164.474 252.544 163.508 249.906 162.129C247.401 160.896 244.568 159.432 241.972 160.457C241.574 160.662 241.145 160.798 240.702 160.859C240.616 160.861 240.531 160.853 240.447 160.836C239.591 160.67 239.591 157.742 239.395 156.879C238.648 153.563 238.534 150.876 238.088 147.995C237.851 146.401 237.483 144.83 236.99 143.298C235.169 137.711 234.618 131.754 234.618 125.899C234.618 125.608 232.568 125.899 231.885 125.872C231.712 125.872 231.616 125.844 231.657 125.784C231.697 125.726 231.743 125.674 231.794 125.627C232.032 125.431 232.311 125.29 232.609 125.216L233.147 125.054C235.961 124.246 239.067 123.909 241.171 121.9C243.357 119.827 243.903 116.516 243.808 113.487C243.78 112.513 243.311 110.149 243.389 108.186C244.182 108.319 244.985 108.389 245.789 108.394C246.17 108.406 246.549 108.329 246.897 108.169C247.244 108.009 247.551 107.77 247.793 107.47C248.552 108.962 249.21 110.505 249.76 112.088C250.534 114.018 251.126 116.05 252.26 117.795C254.082 120.64 257.443 122.51 260.785 122.224C264.128 121.937 267.238 119.333 267.835 115.99C268.359 113.058 267.143 108.837 267.17 105.79C268.947 106.318 270.828 106.38 272.635 105.97C272.712 106.158 272.777 106.351 272.831 106.547C273.856 110.112 275.222 114.203 278.66 115.468C280.883 116.281 283.51 115.671 285.564 116.853C285.722 116.945 285.874 117.047 286.02 117.158C286.494 117.516 286.902 117.955 287.226 118.456C288.07 119.868 288.571 121.463 288.688 123.11C289.214 128.259 288.202 133.449 285.783 138.007V138.007Z"/><path fill="#000" d="M262.716 100.853C260.445 101.741 257.999 102.075 255.576 101.827C253.154 101.579 250.823 100.757 248.772 99.4264C248.604 97.9313 248.355 96.4468 248.025 94.9797C248.025 94.9797 262.826 85.5136 262.37 97.0576C262.3 98.3332 262.416 99.6124 262.716 100.853V100.853Z" opacity=".1"/><path fill="#FABDBD" d="M257.128 100.983C265.68 100.983 272.612 93.9537 272.612 85.2829C272.612 76.6121 265.68 69.583 257.128 69.583C248.577 69.583 241.645 76.6121 241.645 85.2829C241.645 93.9537 248.577 100.983 257.128 100.983Z"/><path fill="#F86D70" d="M230.036 124.301C230.036 124.301 260.093 104.907 353.452 125.687C446.811 146.466 501.005 129.843 501.005 129.843V151.545C501.005 151.545 396.26 163.089 356.184 151.545C316.108 140.001 259.059 133.343 239.081 151.218L230.036 124.301Z"/><path fill="#000" d="M230.036 124.301C230.036 124.301 260.093 104.907 353.452 125.687C446.811 146.466 501.005 129.843 501.005 129.843V151.545C501.005 151.545 396.26 163.089 356.184 151.545C316.108 140.001 259.059 133.343 239.081 151.218L230.036 124.301Z" opacity=".1"/><path fill="#F86D70" d="M230.947 125.225C230.947 125.225 260.093 105.831 353.452 126.611C446.811 147.39 500.094 130.766 500.094 130.766L500.549 150.622C500.549 150.622 396.716 162.166 356.64 150.622C316.564 139.078 259.97 131.034 239.991 148.909L230.947 125.225Z"/><path fill="#F86D70" d="M219.99 155.055C219.99 155.055 189.933 174.449 96.5741 153.669C3.21529 132.89 7.76938 149.514 7.76938 149.514V127.811C7.76938 127.811 53.7657 116.267 93.8417 127.811C133.918 139.355 190.967 146.014 210.946 128.139L219.99 155.055Z"/><path fill="#000" d="M219.99 155.055C219.99 155.055 189.933 174.449 96.5741 153.669C3.21529 132.89 7.76938 149.514 7.76938 149.514V127.811C7.76938 127.811 53.7657 116.267 93.8417 127.811C133.918 139.355 190.967 146.014 210.946 128.139L219.99 155.055Z" opacity=".1"/><path fill="#F86D70" d="M219.079 154.132C219.079 154.132 189.933 173.526 96.5739 152.746C3.21511 131.967 8.68002 148.59 8.68002 148.59L8.22461 128.735C8.22461 128.735 53.3101 117.191 93.3861 128.735C133.462 140.279 190.056 148.323 210.035 130.448L219.079 154.132Z"/><path fill="#3F3D56" d="M243.812 87.8824C243.357 85.001 242.656 81.3716 245.033 79.7231C245.881 79.2018 246.861 78.9449 247.852 78.9843C252.775 78.9335 257.479 82.4106 262.306 81.3947C263.843 81.0682 265.253 80.2988 266.369 79.1788C267.484 78.0589 268.256 76.6361 268.593 75.0816C268.93 73.5271 268.816 71.9071 268.267 70.4163C267.717 68.9255 266.754 67.6275 265.494 66.6783C263.595 65.2469 261.195 64.7297 258.873 64.2449C252.766 62.9704 246.39 61.7006 240.36 63.3213C234.331 64.9421 228.82 70.4232 229.303 76.7124C229.531 79.7231 231.043 82.4567 232.623 85.0241C233.825 86.9728 238.507 96.1064 240.779 96.2449C243.985 96.4343 244.127 89.7664 243.812 87.8824Z"/><path fill="#6A42F4" d="M282.181 174.403C282.181 174.403 250.757 182.253 240.283 174.403C240.283 174.403 235.729 192.412 237.095 201.647C237.095 201.647 259.41 203.032 261.687 204.417C261.687 204.417 262.143 200.723 264.42 202.57C264.42 202.57 272.162 193.335 286.279 201.647C286.279 201.647 289.012 179.944 282.181 174.403Z"/><path fill="#000" d="M265.504 66.6782C265.18 66.4402 264.84 66.2242 264.488 66.0317C265.428 67.115 266.071 68.4294 266.352 69.8435C266.634 71.2576 266.545 72.7219 266.094 74.0901C265.642 75.4583 264.845 76.6824 263.78 77.6401C262.716 78.5978 261.423 79.2555 260.03 79.5475C255.202 80.5634 250.498 77.0863 245.575 77.1371C244.584 77.0977 243.604 77.3546 242.756 77.8759C240.379 79.5244 241.075 83.1538 241.531 86.0352C241.831 87.9192 241.708 94.5871 238.511 94.407H238.457C239.336 95.4921 240.155 96.2263 240.788 96.254C243.976 96.4341 244.108 89.7894 243.808 87.8823C243.352 85.0009 242.656 81.3715 245.033 79.723C245.881 79.2017 246.861 78.9448 247.852 78.9841C252.775 78.9333 257.479 82.4104 262.307 81.3945C263.843 81.0681 265.253 80.2986 266.369 79.1787C267.484 78.0587 268.256 76.636 268.593 75.0815C268.93 73.527 268.817 71.9069 268.267 70.4162C267.717 68.9254 266.754 67.6274 265.494 66.6782H265.504Z" opacity=".1"/><g opacity=".1"><path fill="#6A42F4" d="M39.3291 44.7448C39.3291 44.7448 5.2782 30.227 0.815192 56.4088C0.815192 56.4088 -1.51195 60.4862 1.72601 63.8571C1.72601 63.8571 2.42279 62.0516 5.71539 63.9217C6.89079 64.577 8.13805 65.09 9.43153 65.4501C11.1794 65.939 13.0367 65.8385 14.7234 65.1638C14.7234 65.1638 25.9219 64.5497 35.3398 49.6948C35.3398 49.6948 39.3747 47.1644 39.5796 46.2178L32.8304 46.6795C32.8304 46.6795 33.3451 51.6896 30.5534 54.6957C30.5534 54.6957 33.0354 46.9243 31.8422 46.7026C31.6008 46.6564 28.2764 47.1044 28.2764 47.1044C28.2764 47.1044 29.1371 55.8132 24.6331 60.32C24.6331 60.32 28.8137 51.4588 26.9921 47.2614L22.0145 48.2357C22.0145 48.2357 23.3807 57.397 18.4532 62.7304C18.4532 62.7304 22.5018 53.3104 20.9397 48.522L16.167 50.1474C16.167 50.1474 17.3192 59.1148 13.1978 63.5384C13.1978 63.5384 16.7955 52.1745 15.1014 50.6091C15.1014 50.6091 10.8114 52.373 9.8915 53.3797C9.8915 53.3797 10.5746 59.8443 7.95145 62.1532C7.95145 62.1532 9.5636 54.3032 8.76664 53.98C8.76664 53.98 3.77991 57.7849 2.26339 61.068C2.26339 61.068 4.15789 56.0533 8.13817 53.2181C8.13817 53.2181 4.79547 52.6455 2.21785 54.0631C2.21785 54.0631 3.94385 50.7338 9.345 52.313C9.345 52.313 13.3481 49.5055 14.1496 49.5425C14.1496 49.5425 9.03988 47.2336 5.34651 47.5153C5.34651 47.5153 9.30402 45.2065 15.4019 49.0668L20.1564 47.3214C20.1564 47.3214 13.5575 43.8905 10.2467 43.9043C10.2467 43.9043 14.646 42.182 21.3951 46.9843L26.2635 45.973C26.2635 45.973 20.7985 42.5791 17.1143 41.7895C17.1143 41.7895 21.5363 41.083 27.6707 45.7422L31.0043 45.4559C31.0043 45.4559 26.9693 43.0501 25.7488 42.4637C24.5283 41.8772 24.583 41.494 24.583 41.494C27.4879 42.0053 30.1953 43.3259 32.4024 45.3081C32.4024 45.3081 39.2973 45.1742 39.3291 44.7448Z" opacity=".1"/></g><g opacity=".1"><path fill="#6A42F4" d="M38.0722 18.72C38.0722 18.72 25.9856 -9.57208 8.63909 3.40341C8.63909 3.40341 4.96393 4.48393 4.99581 8.34426C4.99581 8.34426 6.4258 7.6747 7.32751 10.6854C7.66464 11.7545 8.12313 12.7804 8.69373 13.7422C9.44843 15.036 10.5977 16.0457 11.9681 16.619V16.619C11.9681 16.619 18.9632 22.7235 32.9169 19.3388C32.9169 19.3388 36.7378 20.17 37.3936 19.7221L33.1264 16.0926C33.1264 16.0926 30.6217 19.3665 27.2608 19.5281C27.2608 19.5281 33.1037 16.342 32.5162 15.52C32.3978 15.3538 30.1754 13.7007 30.1754 13.7007C30.1754 13.7007 25.7898 19.3711 20.6118 19.4588C20.6118 19.4588 28.0759 16.6052 29.3511 13.0635L25.849 10.7547C25.849 10.7547 21.5044 16.9838 15.5886 17.307C15.5886 17.307 23.285 14.0747 25.0475 10.3067L21.2995 8.51511C21.2995 8.51511 16.9457 14.518 12.0228 14.7443C12.0228 14.7443 20.5435 10.0712 20.4114 8.16417C20.4114 8.16417 16.8729 6.73271 15.7526 6.81582C15.7526 6.81582 12.5328 11.0409 9.6592 10.9209C9.6592 10.9209 15.0285 7.18524 14.7325 6.53415C14.7325 6.53415 9.63188 5.91539 6.88576 6.99591C6.88576 6.99591 10.8296 5.11193 14.7871 5.73069C14.7871 5.73069 13.1249 3.4542 10.8068 2.82159C10.8068 2.82159 13.7032 1.83804 16.0258 5.89692C16.0258 5.89692 19.9788 6.53877 20.4387 7.019C20.4387 7.019 18.7082 2.68306 16.3401 0.72981C16.3401 0.72981 19.9833 1.65334 21.4406 7.45768L25.2433 9.17081C25.2433 9.17081 23.2532 3.32029 21.2539 1.42245C21.2539 1.42245 24.838 2.93703 26.1496 9.68798L29.6061 11.8998C29.6061 11.8998 28.2627 6.72809 26.523 4.15146C26.523 4.15146 29.5469 6.28018 30.5761 12.5925L32.7166 14.3472C32.7166 14.3472 31.6691 10.5884 31.2729 9.5356C30.8767 8.48279 31.1272 8.28884 31.1272 8.28884C32.5632 10.272 33.4286 12.6201 33.6274 15.0721C33.6274 15.0721 37.8262 18.9601 38.0722 18.72Z" opacity=".1"/></g></g><defs><clipPath id="clip0"><rect width="501" height="338" fill="#fff"/></clipPath></defs></svg>